<?xml version="1.0" encoding="utf-8"?>
<!-- Generator: Adobe Illustrator 16.0.0, SVG Export Plug-In . SVG Version: 6.00 Build 0)  -->
<!DOCTYPE svg PUBLIC "-//W3C//DTD SVG 1.1//EN" "http://www.w3.org/Graphics/SVG/1.1/DTD/svg11.dtd">
<svg version="1.1" xmlns="http://www.w3.org/2000/svg" xmlns:xlink="http://www.w3.org/1999/xlink" x="0px" y="0px"
	 width="262.667px" height="300.666px" viewBox="0 0 262.667 300.666" enable-background="new 0 0 262.667 300.666"
	 xml:space="preserve">
<g id="legs">
	<g>
		<path fill="#E2756D" d="M112.613,236.799c-0.594-6.663-11.077-6.725-10.477,0c0.858,9.636,0.535,19.272,0.5,28.935
			c-0.025,6.741,10.451,6.751,10.476,0C113.147,256.071,113.472,246.437,112.613,236.799z"/>
		<path fill="#E2756D" d="M132.068,241.787c-0.131-6.731-10.607-6.755-10.477,0c0.141,7.229,1.917,14.265,2.493,21.452
			c0.538,6.673,11.02,6.732,10.476,0C133.984,256.055,132.209,249.004,132.068,241.787z"/>
		<path fill="#E2756D" d="M165.306,261.348c-0.705-4.466-2.644-8.52-4.224-12.722c-1.554-4.134-2.513-8.423-4.288-12.476
			c-2.695-6.162-11.723-0.835-9.044,5.287c1.599,3.653,2.355,7.727,3.786,11.471c1.423,3.719,3.042,7.26,3.668,11.224
			C156.25,270.772,166.347,267.954,165.306,261.348z"/>
		<path fill="#E2756D" d="M191.216,255.107c-6.603-10.533-13.248-22.376-21.771-31.491c-4.615-4.936-12.011,2.487-7.406,7.409
			c7.882,8.43,14.014,19.612,20.133,29.37C185.744,266.094,194.812,260.843,191.216,255.107z"/>
	</g>
</g>
<g id="BODY">
	<g>
		<path fill="#E2756D" d="M212.75,146.467c-0.232-3.525-0.476-7.251-0.975-10.955c0.169,0.186,0.347,0.363,0.519,0.546
			c-0.805-4.521-1.306-9.118-1.941-13.69c-0.535-3.847-0.934-7.643-1.14-11.432c-0.424-1.306-0.792-2.624-1.109-3.954
			c1.046-9.634-0.671-20.125-3.094-28.456c-4.28-14.715-12.68-27.704-24.854-37.093c-11.996-9.252-26.806-12.484-41.574-14.06
			c-12.062-1.288-28.482-2.683-40.711,2.282c-1.748-0.996-3.466-1.919-5.322-2.648c-14.04-9.321-32.151-1.425-41.441,13.079
			c-0.987,1.541-1.844,3.142-2.644,4.771c-2.905,4.261-5.18,8.866-6.601,13.393c-5.06,16.138,0.355,32.163,3.549,47.922
			c0.235,1.162,2.656,14.396,2.862,19.484c0.163,4.012,0.106,7.956-0.118,11.868c0.127-0.202,0.264-0.398,0.389-0.6
			c-0.03,1.58-0.038,3.164-0.015,4.753c0.169,11.394,1.275,22.881,3.338,34.091c1.977,10.733,5.262,21.505,10.908,30.915
			c1.987,3.31,4.143,6.584,6.436,9.733c2.293,5.738,5.15,11.227,9.058,16.03c7.041,8.654,17.285,13.597,27.937,16.25
			c22.833,5.694,51.856,3.284,72.607-8.695c19.434-11.219,28.048-35.569,31.882-56.493
			C212.953,171.211,213.563,158.951,212.75,146.467z"/>
		<path fill="#E2756D" d="M69.651,202.714c-1.14-1.945-3.625-3.164-5.902-2.878c0.152-0.2,0.304-0.399,0.456-0.599
			c0.667-1.155,0.786-2.376,0.786-3.668c0-3.16-2.638-5.879-5.815-5.899c-2.557-0.017-4.842,1.726-5.618,4.076
			c-2.582,3.55-2.921,8.733-0.995,12.661c2.718,5.543,9.764,7.923,15.002,4.324C70.17,208.94,71.332,205.583,69.651,202.714z"/>
		<path fill="#F4806D" d="M191.188,165.103c-0.011-0.085-0.019-0.17-0.027-0.256c-0.22-8.809-1.952-19.233-2.562-21.244
			c-0.133-0.441-0.293-0.876-0.439-1.314c-0.054-0.207-0.096-0.413-0.153-0.622c-0.887-3.147-2.105-5.895-3.517-8.503
			c-0.151-0.336-0.301-0.674-0.455-1.01c-0.683-1.503-2.185-3.479-2.736-5.199c0.065-0.781,0.126-1.561,0.17-2.343
			c0.164-0.368,0.342-0.742,0.465-1.131c1.901-5.99,1.083-13.397,0.725-19.534c-0.937-16.006-3.459-34.27-17.199-44.548
			c-12.681-9.487-31.338-7.6-43.899,1.227c-7.425,5.217-14.069,12.344-19.14,19.878c-5.555,7.115-9.645,18.13-9.506,27.923
			c-0.468-0.035-0.935-0.056-1.399-0.069c-7.575-2.366-14.515,0.49-20.427,5.668c-1.557,1.362-2.377,1.089-4.296,1.472
			c-1.68,0.335-3.139,1.13-4.471,2.201c-2.366,1.904-3.924,4.524-4.961,7.348c-3.025,8.233-2.805,17.655-2.429,26.281
			c0.425,9.743,1.886,19.875,4.513,29.295c1.191,8.16,3.319,16.084,6.359,23.336c9.838,23.465,32.674,39.996,58.351,41.12
			c12.974,0.567,27.894-1.727,38.536-9.612c9.522-7.058,14.686-17.164,19.363-27.746
			C188.033,194.189,193.053,180.021,191.188,165.103z"/>
		<path fill="#F4806D" d="M94.413,80.513c-0.172-4.312-1.104-9.642-3.726-13.188C87.77,63.378,80,60.663,75.912,60.672
			c-4.089,0.008-16.501,3.536-19.136,11.278c-1.427,4.194-1.138,9.128-0.33,13.402c0.667,3.528,1.723,7.655,5.216,9.267
			c1.883,2.261,4.24,4.137,6.962,5.315c4.464,2.502,9.059,2.173,13.071,0.193C89.271,98.668,94.679,87.184,94.413,80.513z"/>
		<g>
			<path fill="#E2756D" d="M176.572,189.343c-0.104-2.627-1.766-4.575-3.961-5.043c-0.175-0.279-0.458-0.49-0.883-0.506
				c-1.978-0.064-3.738-0.479-5.417,0.89c-1.231,1.006-1.914,2.636-2.001,4.205c-0.123,2.128,0.917,4.065,2.541,5.259
				c0.826,0.751,1.94,1.245,3.382,1.245c0.178,0,0.331-0.035,0.5-0.049C173.875,195.236,176.7,192.578,176.572,189.343z"/>
			<path fill="#E2756D" d="M164.578,212.381c-0.011-0.036-0.032-0.069-0.043-0.105c-0.056-0.129-0.094-0.259-0.163-0.387
				c-0.039-0.076-0.092-0.14-0.136-0.214c-0.054-0.097-0.081-0.201-0.146-0.297c-0.272-0.396-0.599-0.699-0.947-0.962
				c-1.221-0.987-2.852-1.334-4.315-1.029c-0.2,0.01-0.395,0.033-0.592,0.049c-1.023,0.405-1.937,1.153-2.236,2.048
				c-0.059,0.176-0.165,0.291-0.285,0.379c-0.063,0.153-0.12,0.313-0.169,0.479c-1.329,1.947-0.599,4.924,1.311,6.217
				c0.656,0.443,1.348,0.673,2.041,0.761c0.836,0.248,1.765,0.159,2.738-0.44C163.997,217.786,165.632,215.04,164.578,212.381z"/>
			<path fill="#E2756D" d="M138.031,206.435c-0.195-0.31-0.453-0.507-0.74-0.612c-0.056-0.045-0.092-0.108-0.157-0.147
				c-0.151-0.093-0.316-0.15-0.485-0.193c-0.429-0.205-0.983-0.116-1.426,0.186c-0.001,0.001-0.004,0.003-0.005,0.006
				c-0.264,0.021-0.524,0.079-0.769,0.24c-0.656,0.431-0.833,1.211-0.737,1.944c0.16,1.219,1.103,2.773,2.527,2.546
				c1.05-0.169,1.689-1.251,1.808-2.365C138.315,207.546,138.375,206.972,138.031,206.435z"/>
			<path fill="#E2756D" d="M144.519,226.525c-0.303-1.097-1.231-1.521-2.345-1.743c-0.175-0.213-0.418,0.218-0.751,0.218h-0.75
				c-0.301,0-0.532-0.464-0.707-0.282c-0.278,0.107-0.559-0.03-0.821,0.229c-1.134,1.127-1.392,3.125-0.699,4.533
				c0.716,1.458,2.627,1.948,4.103,1.352C144.167,230.177,144.979,228.179,144.519,226.525z"/>
			<path fill="#E2756D" d="M177.561,202.683c-0.431-0.754-1.182-1.372-2.105-1.13c-0.796,0.204-1.32,0.887-1.611,1.618
				c-0.134,0.343-0.19,0.735-0.177,1.128c-0.136,0.467-0.142,0.947,0.086,1.384c0.466,0.897,1.508,1.382,2.47,1.048
				c1.307-0.453,1.753-1.878,1.317-2.957C177.733,203.471,177.792,203.088,177.561,202.683z"/>
			<path fill="#E2756D" d="M66.592,173h-0.121c-0.243,0-0.505-0.526-0.771-0.452c-0.713,0.197-0.939,0.684-0.979,1.346
				c-0.049,0.788,0.751,1.096,1.42,0.98c0.196-0.033,0.377-0.154,0.544-0.258c0.075-0.057,0.147,0.262,0.221,0.205
				C68.151,174.58,67.822,173,66.592,173z"/>
		</g>
		<path fill="#F4806D" d="M81.509,113.777c0.002-0.011,0.009-0.014,0.009-0.025c0.233-1.414-1.93-2.021-2.164-0.597
			c0.153-0.18,0.195-0.227,0.121-0.135c-0.527,0.668-0.367,1.59,0.496,1.876c0.143,0.049,0.316,0.053,0.464,0.055
			C81.187,114.961,81.54,114.36,81.509,113.777z"/>
		<path fill="#E2756D" d="M205.395,51.339c-2.749-5.228-6.612-9.051-12.094-11.353c-2.816-1.183-5.667-1.848-8.723-2.1
			c-3.471-0.285-7.008,0.535-10.451,0.684c-3.144,0.136-6.127,2.52-6.127,5.816v0.39c0,2.421,2.012,5.212,4.539,5.692
			c4.847,0.922,10.375,1.13,14.913,3.207c2.031,0.929,3.607,2.204,4.77,4.088c0.405,0.658,2.393,3.912,1.716,4.8
			c-1.912,2.508-2.354,5.758-0.011,8.207c-5.051,3.459-2.01,12.859,4.541,10.55c5.344-1.884,9.076-6.437,10.378-11.908
			C210.374,62.986,208.377,57.009,205.395,51.339z"/>
		<path fill="#E2756D" d="M204.919,206.891c-0.796-0.789-1.762-1.467-2.658-2.121c-0.442-0.323-2.57-1.9-0.794-0.521
			c-2.413-1.873-5.982-2.493-8.284,0.044c-1.507,1.66-2.206,4.57-1.195,6.719c-1.901,0.989-3.313,2.989-3.232,5.168
			c0.12,3.217,2.537,5.821,5.815,5.9c2.422,0.058,4.595,0.515,6.971-0.355c3.394-1.243,6.255-4.269,6.372-8.039
			C207.997,211.057,206.753,208.707,204.919,206.891z"/>
		<path fill="#D16171" d="M107.121,121.111c-2.011-0.715-4.181-0.562-6.248-0.238c-1.199,0.188-2.302,0.375-3.356,0.532
			c-4.465,1.632-9.035,2.415-13.684,0.812c-7.365-1.939-15.1-5.392-14.134,6.229c0.945,11.386,12.083,21.714,23.494,21.567
			c9.917-0.127,19.735-9.407,19.72-19.565C112.908,126.518,111.017,122.495,107.121,121.111z"/>
		<path fill="#E2756D" d="M230.888,137.008c-6.447-5.313-12.243-10.98-16.912-18.002c-2.515-3.782-4.361-7.911-6.046-12.115
			c-1.304-3.256-2.091-6.99-3.907-9.992c-0.618-1.021-1.498-1.512-2.414-1.628c-1.662-2.328-4.188-3.609-7.385-1.627
			c-4.702,2.914-2.472,10.217-0.74,14.205c3.342,7.691,8.66,15.267,13.947,21.737c5.286,6.469,10.539,12.211,17.302,17.207
			c2.754,2.035,7.34,5.962,10.707,2.743C239.728,145.438,233.953,139.535,230.888,137.008z"/>
		<path fill="#E2756D" d="M54.684,103.515c-4.641-0.139-6.452,2.769-7.139,6.452c-0.411,0.524-0.679,1.201-0.711,2.032
			c-0.503,12.847-10.285,24.42-18.187,33.759c-3.731,4.41-12.898,11.465-9.002,18.008c0.927,1.558,3.197,2.308,4.789,1.256
			c3.646-2.411,5.649-6.221,8.468-9.471c3.373-3.889,6.983-7.598,10.455-11.4c6.571-7.196,13.254-14.973,17.118-24.024
			C62.84,114.583,63.017,103.764,54.684,103.515z"/>
		<path fill="#4F3348" d="M99.107,125.153c-1.361,0.14-2.657,0.419-3.931,0.732c-3.041,0.401-5.979,0.98-8.958,1.29
			c-0.479-0.044-0.955-0.088-1.453-0.189c-2.292-0.471-5.876-3.066-8.364-2.26c-2.304,0.748-2.266,2.966-1.524,4.95
			c0.004,0.013,0.009,0.021,0.011,0.034c0.366,0.958,0.891,1.861,1.397,2.512c4.874,6.243,24.508,6.419,28.321-1.456
			c0.355-0.729,0.524-1.37,0.556-1.935c0.011-0.026,0.036-0.053,0.047-0.078C106.605,125.145,101.461,124.916,99.107,125.153z"/>
		<path fill="#D16171" d="M94.547,68.481c-1.662,0.574-3.476,1.457-5.292,1.67c-1.703-3.053-4.391-5.13-7.927-6.304
			c-1.274-0.424-2.572-0.735-3.871-0.938c0.002-1.386,0.382-2.741,0.571-4.114c0.203-1.474-2.054-2.111-2.258-0.622
			c-0.205,1.49-0.618,2.98-0.652,4.489c-3.417-0.174-6.721,0.476-9.458,2.024c-0.057-0.138-0.135-0.271-0.231-0.394
			c-0.806-1.03-1.424-2.177-2.342-3.123c-1.051-1.084-2.707,0.573-1.656,1.656c0.909,0.938,1.541,2.099,2.342,3.123
			c0.003,0.005,0.008,0.007,0.011,0.011c-2.289,1.875-3.975,4.571-4.661,8.181c-0.461,2.424-0.344,5.122,0.268,7.777
			c0.305,1.751,0.923,3.445,1.786,5c2.349,4.753,6.345,8.591,11.423,9.25c4.789,0.62,9.74-1.401,12.889-5.023
			c1.431-1.646,2.456-3.324,3.17-5.073c1.422-1.984,2.417-4.17,2.759-6.401c0.378-2.462-0.005-4.7-0.924-6.662
			c-0.059-0.181-0.117-0.35-0.166-0.496c-0.023-0.066-0.054-0.124-0.078-0.19c1.671-0.332,3.3-1.021,4.921-1.58
			C96.586,70.252,95.978,67.988,94.547,68.481z"/>
		<g>
			<defs>
				<path id="SVGID_1_" d="M75.25,65.102c-3.677-0.44-6.899,0.336-9.236,2.273c-2.336,1.602-3.876,4.601-4.256,7.741
					c-0.355,2.948,0.564,5.991,2.337,8.354c0.008,0.009,0.014,0.018,0.02,0.027c0.153,0.201,0.307,0.401,0.47,0.591
					c1.98,2.372,4.881,3.915,8.175,3.803c5.719-0.195,12.296-5.545,13.176-11.273C86.918,70.2,81.05,65.791,75.25,65.102z"/>
			</defs>
			<clipPath id="SVGID_2_">
				<use xlink:href="#SVGID_1_"  overflow="visible"/>
			</clipPath>
			<g clip-path="url(#SVGID_2_)">
				<path fill="#FFFFFF" d="M75.25,65.102c-3.677-0.44-6.899,0.336-9.236,2.273c-2.336,1.602-3.876,4.601-4.256,7.741
					c-0.355,2.948,0.564,5.991,2.337,8.354c0.008,0.009,0.014,0.018,0.02,0.027c0.153,0.201,0.307,0.401,0.47,0.591
					c1.98,2.372,4.881,3.915,8.175,3.803c5.719-0.195,12.296-5.545,13.176-11.273C86.918,70.2,81.05,65.791,75.25,65.102z"/>
				<path fill="#4F3348" d="M73.419,73.879c-0.874,0.002-1.677,0.359-2.282,0.967c-0.47,0.475-0.831,1.103-1.026,1.772
					c-0.48,0.878,0.464,3.01,0.621,3.173c1.797,1.88,5.36,0.984,5.968-1.555C76.976,77.092,76.264,73.875,73.419,73.879z"/>
			</g>
		</g>
		<path fill="#D16171" d="M184.899,92.042c-1.785,0.446-3.373,0.684-5.098,0.244c-0.654-4.935-2.146-9.702-4.463-13.854
			c-1.317-2.357-2.865-4.496-4.581-6.429c1.702-1.198,2.991-2.903,3.935-4.751c0.658-1.285-1.279-2.423-1.938-1.134
			c-0.858,1.678-1.977,3.208-3.559,4.231c-5.725-5.678-13.082-9.148-20.761-9.956c0.079-1.646,0.219-3.246-0.68-4.752
			c-0.739-1.238-2.682-0.11-1.938,1.134c0.622,1.038,0.498,2.267,0.403,3.452c-1.625-0.062-5.438-0.289-5.895-0.263
			c-2.797,0.167-5.346,0.792-7.666,1.765c-1.292-0.954-2.473-2.01-3.538-3.322c-0.911-1.121-2.492,0.476-1.587,1.587
			c0.872,1.072,1.821,1.998,2.846,2.832c-15.814,8.881-18.526,35.985-6.417,51.068c2.448,4.93,5.928,9.229,10.556,12.308
			c6.309,4.193,14.461,5.714,22.04,4.354c2.584-0.323,5.163-1.059,7.685-2.312c7.074-3.512,11.441-9.317,13.536-16.183
			c1.991-5.452,2.73-11.51,2.272-17.427c1.81,0.3,3.586,0.035,5.445-0.428C186.897,93.858,186.303,91.693,184.899,92.042z"/>
		<g>
			<defs>
				<path id="SVGID_3_" d="M170.848,78.855c-4.801-7.872-13.204-12.674-22.097-13.482c-2.968-0.596-6.233-0.898-9.074,0.009
					c-17.615,3.128-21.868,27.249-10.724,39.958c1.995,3.682,4.833,6.893,8.607,9.191c5.143,3.132,11.792,4.268,17.972,3.25
					c2.108-0.24,4.211-0.788,6.268-1.725c5.768-2.622,9.33-6.959,11.038-12.085C176.047,95.934,175.285,86.13,170.848,78.855z"/>
			</defs>
			<clipPath id="SVGID_4_">
				<use xlink:href="#SVGID_3_"  overflow="visible"/>
			</clipPath>
			<g clip-path="url(#SVGID_4_)">
				<path fill="#FFFFFF" d="M170.848,78.855c-4.801-7.872-13.204-12.674-22.097-13.482c-2.968-0.596-6.233-0.898-9.074,0.009
					c-17.615,3.128-21.868,27.249-10.724,39.958c1.995,3.682,4.833,6.893,8.607,9.191c5.143,3.132,11.792,4.268,17.972,3.25
					c2.108-0.24,4.211-0.788,6.268-1.725c5.768-2.622,9.33-6.959,11.038-12.085C176.047,95.934,175.285,86.13,170.848,78.855z"/>
				<path fill="#4F3348" d="M152.389,84.973c-3.393-1.303-7.812-0.177-9.414,3.266c-1.794,3.856,0.553,8.536,4.791,9.259
					c2.854,0.485,5.549-1.06,6.887-3.444C157.016,90.858,156.287,86.471,152.389,84.973z"/>
			</g>
		</g>
	</g>
</g>
</svg>
