<?xml version="1.0" encoding="utf-8"?>
<!-- Generator: Adobe Illustrator 16.0.0, SVG Export Plug-In . SVG Version: 6.00 Build 0)  -->
<!DOCTYPE svg PUBLIC "-//W3C//DTD SVG 1.1//EN" "http://www.w3.org/Graphics/SVG/1.1/DTD/svg11.dtd">
<svg version="1.1" xmlns="http://www.w3.org/2000/svg" xmlns:xlink="http://www.w3.org/1999/xlink" x="0px" y="0px" width="252.5px"
	 height="279.5px" viewBox="0 0 252.5 279.5" enable-background="new 0 0 252.5 279.5" xml:space="preserve">
<g id="LEGS">
	<g>
		<path fill="#133763" d="M104.31,250.189c-0.428-3.737-0.627-7.512-0.627-11.485c0-2.271-4.258-2.271-4.258,0v0.567
			c0,0.02,0.147,0.037,0.147,0.058c0.016,3.554,0.28,7.204,0.633,10.729c0.384,3.816,1.638,7.495,1.739,11.355
			c0.066,2.552,4.058,2.514,3.992-0.049C105.838,257.582,104.738,253.922,104.31,250.189z"/>
		<path fill="#133763" d="M116.173,238.704c-0.007-2.557-3.98-2.562-3.974,0c0.02,8.14,0.505,16.25,1.484,24.328
			c-0.236,0.306-0.375,0.709-0.35,1.219c0.086,1.614,0.951,2.47,2.555,2.554c0.975,0.052,2.122-0.958,1.987-1.986
			C116.744,256.151,116.195,247.442,116.173,238.704z"/>
		<path fill="#133763" d="M132.417,250.134c-0.515-4.009-1.844-7.917-1.483-11.998c0.225-2.547-3.75-2.532-3.975,0
			c-0.344,3.9,0.771,7.668,1.391,11.484c0.55,3.4,1.145,6.96,1.364,10.443c-0.658,0.846-0.511,2.294,0.437,2.971
			c0.977,1.417,3.663,1.09,3.622-1.054C133.697,258.015,132.922,254.057,132.417,250.134z"/>
		<path fill="#133763" d="M156.592,267.737c-0.225-1.138-0.135-2.334-0.18-3.494c-0.09-2.244-0.287-4.486-0.406-6.731
			c-0.217-4.112-0.443-8.219-0.713-12.327c-0.171-2.632,0.25-11.428-4.176-10.668c-1.997,0.343-1.727,2.822-0.279,3.616
			c-0.019-0.002-0.035-0.005-0.055-0.008c-0.166-0.081-0.279-0.15-0.355-0.204c0.059,0.092,0.117,0.236,0.132,0.446
			c0.029,0.466,0.194,0.952,0.27,1.419c0.177,1.106,0.276,2.228,0.368,3.343c0.207,2.517,0.377,5.043,0.525,7.563
			c0.248,4.162,0.481,8.326,0.736,12.487c0.176,2.859-0.117,5.725,1.312,8.318c0.961,1.745,3.561,0.937,3.561-1.002v-1.136
			C157.332,268.581,157.104,268.043,156.592,267.737z"/>
	</g>
</g>
<g id="BODY">
	<g>
		<path fill="#96B0C5" d="M114.566,240.214c24.167,1.896,48.799,4.485,73.015,1.895c11.865-1.269,23.35-5.69,34.128-10.615
			c1.465-0.67,2.918-1.364,4.365-2.067c-6.268-61.679-30.836-224.66-33.279-226.861c-2.99-2.692-152.412,25.779-152.412,25.779
			s5.729,198.111,8.556,201.822c0.974,1.279,21.892,4.797,49.077,8.705C103.529,239.355,109.049,239.782,114.566,240.214z"/>
		<g>
			<path opacity="0.9" fill="#92D7E7" d="M158.493,196.536c-0.389-0.367-0.801-0.698-1.226-1.012
				c-0.289-0.46-0.622-0.869-1.009-1.195c-0.87-0.734-1.915-1.026-2.859-0.853c-5.181-1.924-11.524-1.725-16.646-1.716
				c-5.396,0.009-10.809,0.033-16.225,0.103c-0.82-0.602-2.064-0.59-2.862,0.043c-3.465,0.056-6.932,0.132-10.396,0.24
				c-0.922-0.994-2.752-1.074-3.521,0.13c-0.601,0.023-1.204,0.042-1.805,0.066c-0.833-0.711-2.126-0.744-3.016,0.144
				c-2.621,0.127-5.24,0.272-7.853,0.449c-1.115,0.03-2.229,0.064-3.344,0.085c-1.173,0.021-2.42,0.086-3.676,0.239
				c-0.984,0.029-1.97,0.059-2.96,0.096c-1.122,0.043-2.201,0.183-3.123,0.605c-1.259-0.361-2.767,0.634-2.912,2.134
				c-0.039,0.407-0.067,0.813-0.088,1.221c-0.225,0.262-0.438,0.535-0.635,0.828c-2.471,3.685-1.524,8.867-0.875,12.965
				c0.727,4.588,2.057,8.533,6.491,10.597c5.254,2.445,11.227,2.915,16.899,3.681c6.883,0.928,13.842,1.154,20.779,1.221
				c12.275,0.121,24.427,0.602,35.568-5.367c4.75-2.543,6.891-7.786,7.824-12.883C161.803,204.107,161.836,199.694,158.493,196.536z
				"/>
			<path fill="#BDCED9" d="M194.979,188.836c-0.625-0.576-8.568-7.815-34.62-7.169c-7.081,0.176-14.187,0.222-21.294,0.379
				c-0.082-4.936-0.653-9.888-0.791-14.809c-0.186-6.633-7.462-99.637-7.926-99.722c-4.928-0.896-10.801-0.222-15.77,0.403
				c-4.04,0.509-8.848,1.587-11.477,5.013c-2.875,3.744,3.579,100.133,3.648,103.215c0.037,1.628,0.513,4.643,0.452,7.009
				c-0.706,0.033-27.739,0.666-35.214,2.11c-1.749,0.339-9.624,5.761-9.65,6.407c-0.351,0.42-0.685,0.858-0.992,1.328
				c-3.855,5.898-2.251,14.11-1.142,20.608c1.242,7.275,3.431,13.515,10.513,16.706c8.392,3.782,17.888,4.414,26.912,5.521
				c10.949,1.343,22.007,1.569,33.025,1.544c19.501-0.044,38.811,0.484,56.393-9.209c7.494-4.13,10.795-12.499,12.178-20.609
				C200.38,200.798,200.35,193.788,194.979,188.836z"/>
			<path fill="#BDCED9" d="M78.938,166.445c-1.208-1.678-2.797-2.994-4.631-3.941c-0.227-0.118-0.46-0.215-0.693-0.313
				c-2.366-1.477-5.117-2.375-7.792-2.401c-0.046-0.004-0.092-0.005-0.138-0.003c-2.773,0.003-5.455,0.952-7.523,3.175
				c-5.585,6.002-5.166,17.299,1.509,22.363c6.185,4.694,17.801,3.231,20.873-4.61C82.346,176.106,81.847,170.482,78.938,166.445z"
				/>
			<path fill="#BDCED9" d="M215.055,165.339c-1.467-13.103-14.057-19.704-16.854-21.353c-5.327-3.139-12.001-2.332-17.408,0.096
				c-11.847,5.315-18.39,19.266-13.671,33.42c4.453,13.348,17.393,21.402,29.561,18.758
				C208.941,193.597,216.688,179.935,215.055,165.339z"/>
			<path fill="#7392B0" d="M145.469,217.445c-5.269-3.85-13.082-4.314-19.361-4.91c-3.854-0.363-19.374,1.062-20.971,3.621
				c-2.649,4.244,0.526,10.157,4.05,12.818c4.717,3.562,11.812,3.972,17.493,4.28c3.181,0.173,6.413-0.163,9.558-0.651
				c2.873-0.445,5.861-0.814,8.161-2.745C148.178,226.688,149.957,220.725,145.469,217.445z"/>
			<path fill="#133763" d="M111.078,76.377c-0.498-0.186-1.1,0.064-1.431,0.484c-0.256,0.032-0.508,0.106-0.756,0.28
				c-0.663,0.464-0.984,1.239-0.939,2.032c0.063,1.08,0.768,1.956,1.828,2.215c1.539,0.375,4.12-0.409,4.037-2.363
				C113.754,77.547,112.291,76.827,111.078,76.377z"/>
			<g>
				<path fill="#45384C" d="M117.119,79.352C117.119,79.352,117.119,79.352,117.119,79.352c0.012,0.003,0.025,0.005,0.039,0.009
					C117.149,79.356,117.133,79.355,117.119,79.352z"/>
				<path fill="#133763" d="M124.619,76.625c-0.057-0.396-0.295-0.762-0.648-1.011c-1.674-1.174-3.77-0.272-4.587,1.45
					c-0.784,1.65-0.13,3.456,1.214,4.593c1.086,0.918,2.596,1.105,3.84,0.381c1.033-0.601,1.778-1.762,1.727-2.975
					C126.115,77.956,125.477,77.154,124.619,76.625z"/>
			</g>
		</g>
		<path fill="#ACDEE0" d="M192.591,202.291c-1.442-4.021-5.951-6.846-9.976-7.668c-10.313-2.106-16.363,10.807-10.536,18.566
			c1.108,1.479,2.229,2.437,3.333,2.993c1.984,1.598,4.475,2.47,7.129,1.973c5.236-0.979,10.666-5.672,10.547-11.321
			C193.291,205.273,193.046,203.56,192.591,202.291z"/>
		<path fill="#ACDEE0" d="M77.977,205.562c-1.758,0.036-3.512,0.498-5.004,1.356c-3.429,1.315-5.95,4.768-4.709,8.628
			c1.294,4.027,5.989,5.852,9.904,5.226c4.113-0.656,8.698-4.234,8.443-8.794C86.363,207.569,81.894,205.483,77.977,205.562z"/>
		<path fill="#ACDEE0" d="M244.194,117.566c1.409-2.617-0.87-53.91-13.298-73.359s-31.756-18.326-38.783-18.106
			s-4.285,2.714-4.812,3.733c-0.527,1.021,2.666,3.318,6.375,3.515c3.709,0.194,15.973-1.106,22.021,5.309
			c14.876,15.774,15.656,44.081,13.509,77.268C228.842,121.548,242.785,120.184,244.194,117.566z"/>
		<path fill="#ACDEE0" d="M13.961,139.361c-1.887-2.297-9.521-53.072-1.068-74.548c8.453-21.477,27.635-24.095,34.573-25.232
			c6.939-1.137,4.728,1.838,5.441,2.737c0.714,0.9-1.977,3.771-5.579,4.676c-3.603,0.905-15.887,1.989-20.588,9.447
			c-11.562,18.343-6.881,46.271,1.613,78.424C29.793,140.312,15.847,141.657,13.961,139.361z"/>
		<path fill="#133763" d="M135.343,224.08c0.28-0.06,0.561-0.122,0.836-0.192c0.073-0.018,0.14-0.042,0.21-0.062
			c1.793-0.309,3.344-0.821,3.666-2.249c0.516-2.289-3.053-2.572-5.756-2.675c-4.422-0.167-8.804-0.414-13.237-0.424
			c-2.019-0.005-4.043,0-6.052,0.146c-1.207,0.088-2.641,0.173-3.877,0.446c-0.085,0-0.169,0.001-0.253,0.002
			c-0.37,0.003-0.67,0.13-0.837,0.315c-0.059,0.022-0.119,0.044-0.175,0.068c-1.211,0.511-1.546,1.408-1.003,2.24
			c0.636,0.975,2.105,1.543,3.568,1.95c3.731,1.037,7.84,1.254,11.873,1.167c1.324-0.027,2.688-0.037,4.055-0.069
			C130.653,224.202,132.996,224.144,135.343,224.08z M111.768,222.043c-0.076-0.035-0.148-0.072-0.219-0.109
			c0.086-0.013,0.17-0.027,0.25-0.043C111.787,221.939,111.775,221.99,111.768,222.043z M126.043,221.287
			c0.12-0.241,0.246-0.482,0.35-0.728c0.029-0.003,0.057-0.006,0.086-0.007c-0.126,0.204-0.235,0.41-0.352,0.596
			C126.099,221.194,126.07,221.241,126.043,221.287z"/>
		<path fill="#7392B0" d="M73.983,166.122c-5.629-4.223-12.127-0.718-14.302,2.129c-1.765,2.309-2.5,5.157-1.857,8.012
			c0.426,1.888,1.411,3.738,2.717,5.186c1.597,2.168,4.675,3.425,7.297,3.677c4.988,0.478,9.188-2.445,10.565-7.278
			C79.676,173.388,77.757,168.952,73.983,166.122z"/>
		<g>
			<defs>
				<path id="SVGID_1_" d="M76.59,173.12c-0.462-2.856-3.714-5.909-3.859-6.047c-2.65-2.533-8.607-0.687-10.669,1.644
					c-2.604,2.942-2.689,6.954-0.258,10.059c2.242,2.862,6.079,4.069,9.476,2.604C74.385,180.041,77.163,176.664,76.59,173.12z"/>
			</defs>
			<clipPath id="SVGID_2_">
				<use xlink:href="#SVGID_1_"  overflow="visible"/>
			</clipPath>
			<g clip-path="url(#SVGID_2_)">
				<path fill="#F2F2F2" d="M76.59,173.12c-0.462-2.856-3.714-5.909-3.859-6.047c-2.65-2.533-8.607-0.687-10.669,1.644
					c-2.604,2.942-2.689,6.954-0.258,10.059c2.242,2.862,6.079,4.069,9.476,2.604C74.385,180.041,77.163,176.664,76.59,173.12z"/>
				<path fill="#133763" d="M71.355,171.685c-0.666-1.295-2.009-1.583-3.343-1.585c-0.211-0.001-0.412,0.043-0.604,0.108
					c-0.143-0.032-0.288-0.057-0.437-0.062c-1.414-0.049-2.489,1.057-2.818,2.359c-0.48,1.898,0.987,3.538,2.784,3.869
					c1.618,0.298,3.576-0.066,4.451-1.619C71.93,173.796,71.848,172.644,71.355,171.685z"/>
			</g>
		</g>
		<path fill="#7392B0" d="M211.073,162.619c-0.14-0.288-0.304-0.557-0.46-0.83c-1.281-3.419-8.84-13.916-21.3-11.913
			c-6.181,0.994-10.513,5.381-12.133,7.401c-5.386,6.712-4.667,16.521,1.303,22.686c5.653,5.843,15.226,7.164,22.657,4.042
			C209.288,180.583,215.146,171.031,211.073,162.619z"/>
		<g>
			<defs>
				<path id="SVGID_3_" d="M206.707,161.746c-0.101-0.216-0.221-0.417-0.335-0.622c-0.933-2.561-7.548-10.69-15.539-8.924
					c-4.576,1.013-7.669,4.031-8.851,5.544c-3.928,5.028-3.404,12.375,0.949,16.994c4.126,4.376,11.107,5.365,16.53,3.026
					C205.406,175.201,209.679,168.048,206.707,161.746z"/>
			</defs>
			<clipPath id="SVGID_4_">
				<use xlink:href="#SVGID_3_"  overflow="visible"/>
			</clipPath>
			<g clip-path="url(#SVGID_4_)">
				<path fill="#F2F2F2" d="M206.707,161.746c-0.101-0.216-0.221-0.417-0.335-0.622c-0.933-2.561-7.548-10.69-15.539-8.924
					c-4.576,1.013-7.669,4.031-8.851,5.544c-3.928,5.028-3.404,12.375,0.949,16.994c4.126,4.376,11.107,5.365,16.53,3.026
					C205.406,175.201,209.679,168.048,206.707,161.746z"/>
				<path fill="#133763" d="M197.669,164.116c-0.2-1.393-1.026-2.744-2.337-3.335c-0.171-0.078-0.345-0.137-0.521-0.181
					c-0.356-0.339-0.825-0.556-1.335-0.53c-2.734,0.132-4.627,2.849-4.271,5.48c0.434,3.207,4.316,4.097,6.707,2.354
					C197.15,167.002,197.893,165.666,197.669,164.116z"/>
			</g>
		</g>
	</g>
</g>
</svg>
