<?xml version="1.0" encoding="utf-8"?>
<!-- Generator: Adobe Illustrator 15.1.0, SVG Export Plug-In . SVG Version: 6.00 Build 0)  -->
<!DOCTYPE svg PUBLIC "-//W3C//DTD SVG 1.1//EN" "http://www.w3.org/Graphics/SVG/1.1/DTD/svg11.dtd">
<svg version="1.1" id="Selected_Items" xmlns="http://www.w3.org/2000/svg" xmlns:xlink="http://www.w3.org/1999/xlink" x="0px"
	 y="0px" width="261.591px" height="180px" viewBox="0 -20 261.591 200" overflow="hidden"
	 xml:space="preserve">
	 
<symbol  id="Symbol_2" viewBox="-0.051 -126.899 124.496 126.903">
	<g id="Layer_1_2_">
		<g>
			<g>
				<path fill-rule="evenodd" clip-rule="evenodd" fill="#614E43" d="M46.826,0.004l29.647-0.327c4.047,0,7.932-0.547,11.651-1.642
					c3.72-1.13,7.038-2.717,9.956-4.759c3.829-2.735,6.874-6.181,9.134-10.338c2.224-4.157,3.574-8.861,4.048-14.113l1.422-23.739
					c3.355-0.62,6.145-2.243,8.369-4.868c2.261-2.699,3.391-5.78,3.391-9.244c0-3.975-1.422-7.366-4.267-10.175
					c-2.808-2.844-6.199-4.266-10.174-4.266l-0.438,0.054l-1.04-10.611c-0.583-5.287-2.443-10.047-5.58-14.276
					c-3.172-4.23-7.092-7.22-11.76-8.971c-3.537-1.678-7.02-3.209-10.447-4.595c-8.278-3.354-14.222-5.033-17.833-5.033h-0.109
					c-3.574,0.073-9.627,1.732-18.161,4.979c-5.58,2.151-9.336,3.683-11.269,4.595c-4.704,1.786-8.642,4.776-11.815,8.971
					c-3.172,4.193-5.069,8.952-5.689,14.276v0.109l-1.039,10.557l-0.493-0.054c-3.975,0-7.366,1.422-10.174,4.266
					c-2.808,2.809-4.212,6.2-4.212,10.175c0,3.72,1.258,6.946,3.774,9.682c2.516,2.735,5.597,4.285,9.244,4.649l0.164,21.716
					c-0.036,9.372,3.063,17.103,9.299,23.193c6.053,5.943,14.113,9.189,24.178,9.736L46.826,0.004z M76.474-13.178L47.1-12.85
					c-6.637-0.401-11.833-2.389-15.589-5.962c-3.756-3.538-5.616-8.261-5.58-14.168l-0.219-29.976l2.954-29.701
					c0.292-2.626,1.203-5.087,2.735-7.385c1.713-2.553,3.901-4.321,6.564-5.306l0.328-0.164c5.032-2.188,9.937-4.121,14.714-5.799
					c5.178-1.823,8.479-2.735,9.9-2.735c1.532,0,4.686,0.895,9.463,2.681c4.521,1.715,9.025,3.647,13.51,5.798l0.602,0.22
					c2.48,0.911,4.577,2.516,6.291,4.813c1.677,2.297,2.68,4.904,3.009,7.821l3.227,33.914l1.094-1.258l-1.641,27.842
					c-0.692,7.476-3.792,12.8-9.299,15.973C85.59-14.199,81.36-13.178,76.474-13.178z M110.059-67.495
					c-0.146,0-0.365-0.073-0.657-0.219l-1.859-0.875l1.312-1.477c0.292-0.365,0.675-0.547,1.149-0.547
					c0.438,0,0.82,0.146,1.148,0.438c0.292,0.328,0.438,0.711,0.438,1.148c0,0.401-0.145,0.766-0.438,1.094
					C110.825-67.641,110.46-67.495,110.059-67.495z M13.24-67.933c-0.292-0.328-0.438-0.692-0.438-1.094
					c0-0.438,0.146-0.82,0.438-1.148c0.292-0.292,0.657-0.438,1.094-0.438c0.547,0,0.948,0.182,1.204,0.547l1.094,1.258
					l-1.094,0.766c-0.511,0.364-0.912,0.547-1.204,0.547C13.897-67.495,13.533-67.641,13.24-67.933z"/>
			</g>
			<g>
				<path fill-rule="evenodd" clip-rule="evenodd" fill="#E5D6CB" d="M115.638-63.393c1.568-1.568,2.352-3.445,2.352-5.634
					c0-2.225-0.784-4.103-2.352-5.635c-1.531-1.567-3.41-2.352-5.634-2.352c-2.407,0-4.413,0.912-6.017,2.735l-1.86-19.09
					c-0.438-3.976-1.805-7.586-4.103-10.831c-2.443-3.392-5.561-5.78-9.354-7.166c-3.172-1.531-6.637-3.045-10.393-4.54
					c-7.476-3.063-12.618-4.576-15.426-4.54c-2.625,0-7.931,1.514-15.917,4.54l-11.213,4.54c-3.72,1.386-6.819,3.812-9.299,7.275
					c-2.297,3.245-3.684,6.819-4.158,10.722l-1.859,19.09c-1.604-1.823-3.628-2.735-6.072-2.735c-2.188,0-4.066,0.784-5.634,2.352
					c-1.568,1.532-2.352,3.41-2.352,5.635c0,2.188,0.784,4.065,2.352,5.634c1.568,1.568,3.446,2.353,5.634,2.353
					c1.058,0,2.17-0.273,3.337-0.82c1.058-0.511,1.969-1.148,2.735-1.915l0.055,33.367c0,3.719,1.313,6.892,3.938,9.518
					s5.798,3.938,9.518,3.938h56.56c3.719,0,6.91-1.312,9.572-3.938c2.625-2.626,3.938-5.799,3.938-9.518v-33.367
					c0.729,0.767,1.641,1.404,2.735,1.915c1.13,0.547,2.224,0.82,3.282,0.82C112.229-61.04,114.107-61.824,115.638-63.393z"/>
			</g>
			<g>
				<polygon fill-rule="evenodd" clip-rule="evenodd" fill="#D9BCA7" points="52.132,-64.541 33.589,-64.541 33.589,-59.892 
					52.132,-59.892 				"/>
			</g>
			<g>
				<polygon fill-rule="evenodd" clip-rule="evenodd" fill="#D9BCA7" points="90.422,-64.541 71.878,-64.541 71.878,-59.892 
					90.422,-59.892 				"/>
			</g>
			<g>
				<path fill-rule="evenodd" clip-rule="evenodd" fill="#9E8F87" d="M45.13-49.226l11.104-1.367l-0.547-4.595l-10.831,1.312
					c-2.917-0.036-5.397-1.094-7.439-3.172c-2.079-2.079-3.118-4.577-3.118-7.494H29.65c0,4.229,1.495,7.841,4.485,10.831
					c3.027,2.989,6.655,4.484,10.886,4.484H45.13z"/>
			</g>
			<g>
				<path fill-rule="evenodd" clip-rule="evenodd" fill="#D9D1CC" d="M35.722-111.364c-3.756,1.386-6.874,3.774-9.354,7.166
					c-2.333,3.281-3.701,6.893-4.103,10.831l-1.805,18.324l5.416,0.164c2.115-10.867,7.275-16.246,15.48-16.137
					c2.151,0.036,5.871,0.602,11.158,1.695c4.996,1.058,8.752,1.531,11.269,1.423c1.933-0.073,5.36-0.693,10.283-1.86
					c4.668-1.13,8.169-1.677,10.502-1.641c7.876,0.146,12.727,5.871,14.55,17.176l4.868-0.055l-1.86-19.09
					c-0.401-4.012-1.769-7.641-4.103-10.886c-2.406-3.355-5.524-5.726-9.354-7.111c-3.172-1.531-6.637-3.045-10.393-4.54
					c-7.476-3.063-12.618-4.576-15.426-4.54c-2.625,0-7.931,1.514-15.917,4.54L35.722-111.364z"/>
			</g>
			<g>
				<path fill-rule="evenodd" clip-rule="evenodd" fill="#43494A" d="M93.978-11.701c6.455-4.34,10.083-11.013,10.885-20.021
					l1.696-33.804c-0.11-0.948-0.493-2.353-1.149-4.212c-0.765-2.188-1.24-3.702-1.422-4.54c-1.86,3.026-3.246,7.42-4.157,13.183
					c-0.729,6.71-1.35,11.633-1.859,14.769c-0.839,5.471-2.188,9.481-4.048,12.034c-2.333,3.318-5.871,4.978-10.611,4.978
					L41.63-29.369c-5.178-0.292-9.081-2.315-11.706-6.072c-2.042-2.917-3.5-7.256-4.376-13.018
					c-0.474-3.318-1.002-8.297-1.586-14.934c-0.693-5.47-1.86-9.354-3.501-11.65l-0.821,6.29l-0.109,35.773
					c-0.036,7.585,2.407,13.784,7.33,18.598C31.82-9.568,38.512-6.924,46.936-6.45l28.553-0.273
					C82.636-6.541,88.799-8.2,93.978-11.701z"/>
			</g>
			<g>
				<path fill-rule="evenodd" clip-rule="evenodd" fill="#9E8F87" d="M94.853-64.541h-4.649c0,2.917-1.021,5.415-3.063,7.494
					c-2.043,2.078-4.522,3.136-7.439,3.172l-10.284-1.312l-0.602,4.595l10.557,1.367h0.164c4.23,0,7.841-1.495,10.831-4.484
					C93.357-56.7,94.853-60.312,94.853-64.541z"/>
			</g>
			<g>
				<path fill-rule="evenodd" clip-rule="evenodd" fill="#D6C3B7" d="M92.172-32.323c3.173-2.844,5.343-9.354,6.51-19.527
					c1.313-11.342,3.081-18.816,5.306-22.427l-1.86-19.09c-0.438-3.976-1.787-7.55-4.047-10.722
					c-2.407-3.392-5.525-5.854-9.354-7.385c-3.428-1.641-7.129-3.209-11.104-4.704l2.024,1.368c1.677,1.239,3.209,2.589,4.595,4.047
					c4.522,4.668,7.074,9.755,7.658,15.262C93.686-78.289,93.777-57.229,92.172-32.323z M110.004-61.04
					c2.224,0,4.103-0.784,5.634-2.353c1.568-1.568,2.352-3.445,2.352-5.634c0-2.225-0.784-4.103-2.352-5.635
					c-1.531-1.567-3.41-2.352-5.634-2.352c-2.407,0-4.413,0.912-6.017,2.735c0.182,0.838,0.657,2.352,1.422,4.54
					c0.657,1.859,1.04,3.264,1.149,4.212l-0.11,2.844l0.191,0.767C107.942-61.332,109.063-61.04,110.004-61.04z"/>
			</g>
			<g>
				<polygon fill-rule="evenodd" clip-rule="evenodd" fill="#D9BCA7" points="52.788,-81.006 73.082,-81.006 73.082,-85.655 
					52.788,-85.655 				"/>
			</g>
			<g>
				<path fill-rule="evenodd" clip-rule="evenodd" fill="#D9BCA7" d="M86.265-95.446c0-0.984-0.347-1.823-1.039-2.517
					c-0.693-0.656-1.514-0.984-2.461-0.984c-0.949,0-1.77,0.328-2.461,0.984c-0.693,0.693-1.04,1.532-1.04,2.517
					c0,0.948,0.346,1.769,1.04,2.461c0.692,0.693,1.513,1.04,2.461,1.04c0.948,0,1.768-0.347,2.461-1.04
					C85.918-93.678,86.265-94.498,86.265-95.446z"/>
			</g>
			<g>
				<path fill-rule="evenodd" clip-rule="evenodd" fill="#D9BCA7" d="M46.99-95.118c0-0.948-0.328-1.769-0.984-2.461
					c-0.693-0.693-1.532-1.04-2.517-1.04c-0.948,0-1.768,0.347-2.461,1.04c-0.692,0.692-1.039,1.513-1.039,2.461
					c0,0.984,0.347,1.805,1.039,2.462c0.693,0.692,1.514,1.039,2.461,1.039c0.985,0,1.824-0.347,2.517-1.039
					C46.662-93.313,46.99-94.134,46.99-95.118z"/>
			</g>
			<g>
				<polygon fill-rule="evenodd" clip-rule="evenodd" fill="#FFFFFF" points="46.115,-62.188 36.652,-62.188 36.652,-59.017 
					46.115,-59.017 				"/>
			</g>
			<g>
				<polygon fill-rule="evenodd" clip-rule="evenodd" fill="#FFFFFF" points="87.851,-62.08 78.388,-62.08 78.388,-58.853 
					87.851,-58.853 				"/>
			</g>
			<g>
				<path fill-rule="evenodd" clip-rule="evenodd" fill="#685B43" d="M85.937-61.423c0-0.766-0.273-1.423-0.82-1.97
					c-0.547-0.547-1.204-0.82-1.97-0.82c-0.766,0-1.422,0.273-1.969,0.82c-0.547,0.547-0.821,1.204-0.821,1.97
					s0.273,1.422,0.821,1.969c0.547,0.547,1.203,0.821,1.969,0.821c0.766,0,1.422-0.274,1.97-0.821
					C85.663-60.001,85.937-60.657,85.937-61.423z"/>
			</g>
			<g>
				<path fill-rule="evenodd" clip-rule="evenodd" fill="#685B43" d="M44.255-61.423c0-0.766-0.273-1.423-0.821-1.97
					c-0.547-0.547-1.203-0.82-1.969-0.82c-0.766,0-1.422,0.273-1.97,0.82c-0.547,0.547-0.82,1.204-0.82,1.97s0.273,1.422,0.82,1.969
					c0.547,0.547,1.204,0.821,1.97,0.821c0.766,0,1.422-0.274,1.969-0.821C43.982-60.001,44.255-60.657,44.255-61.423z"/>
			</g>
			<g>
				<path fill-rule="evenodd" clip-rule="evenodd" fill="#FFFFFF" d="M63.126-105.511c-4.521,0-8.679,0.893-12.471,2.68
					c-4.194,2.006-6.583,4.577-7.166,7.713h39.22c-0.583-3.136-2.972-5.707-7.166-7.713
					C71.788-104.618,67.648-105.511,63.126-105.511z"/>
			</g>
		</g>
	</g>
</symbol>
<symbol  id="Symbol_4" viewBox="-0.061 -138.7 145.559 138.719">
	<g id="Layer_1_3_">
		<g>
			<g>
				<g>
					<path fill-rule="evenodd" clip-rule="evenodd" fill="#E5D6CB" d="M41.575-11.359c1.35,0.875,2.827,1.131,4.431,0.766
						c1.604-0.328,2.844-1.186,3.72-2.571l28.17-43.212l3.392,2.133L64.658-16.337c-0.62,1.495-0.638,3.009-0.054,4.54
						c0.62,1.531,1.677,2.607,3.172,3.228l3.938,1.75c1.495,0.62,3.008,0.638,4.54,0.055c1.495-0.62,2.571-1.678,3.227-3.173
						L100.76-58.62l14.441-21.388l8.369,22.592c0.583,1.531,1.604,2.644,3.063,3.336c1.495,0.693,3.009,0.747,4.54,0.164
						l4.048-1.477c1.532-0.584,2.645-1.604,3.336-3.063c0.657-1.495,0.712-3.008,0.165-4.54l-9.408-43.049
						c-0.657-1.714-1.841-2.898-3.556-3.555l-50.05-21.935c-1.567-0.693-2.972-0.931-4.212-0.712
						c-1.422,0.256-2.735,1.094-3.938,2.517l-23.63,29.209l-35.5,29.703c-1.24,1.021-1.934,2.352-2.079,3.992
						c-0.183,1.605,0.255,3.045,1.312,4.321l2.79,3.337c1.021,1.24,2.352,1.933,3.993,2.079c1.604,0.182,3.045-0.256,4.321-1.313
						l24.232-20.293l4.266,2.734L19.805-45.108c-1.058,1.239-1.532,2.661-1.422,4.266c0.073,1.642,0.729,3.009,1.969,4.103
						l3.228,2.845c1.239,1.058,2.662,1.531,4.267,1.422c1.641-0.073,3.008-0.729,4.102-1.969l29.101-32.711l3.227,2.079
						L36.16-21.861c-0.876,1.386-1.149,2.862-0.821,4.431c0.364,1.604,1.239,2.844,2.625,3.719L41.575-11.359z"/>
					<path fill-rule="evenodd" clip-rule="evenodd" fill="#BFAA9D" d="M70.729-14.203L89.328-56.65l-13.346-8.533l-31.343,48.19
						l-2.844-1.806l31.343-48.189l-13.237-8.479L27.462-38.983l-2.516-2.242L57-77.327l-14.55-9.299L15.045-63.598l-2.188-2.626
						l35.665-29.756L72.644-125.9l0.438,0.164l0.055,0.055l50.16,21.989l9.244,42.502l-3.173,1.148l-12.471-33.859L95.126-61.684
						L73.793-12.891L70.729-14.203z M74.067,0.019c2.442,0,4.686-0.675,6.728-2.024c2.042-1.349,3.555-3.136,4.54-5.36l21.06-48.19
						l7.166-10.611l4.047,10.994c0.875,2.407,2.37,4.34,4.485,5.798c2.116,1.495,4.449,2.243,7.001,2.243
						c1.423,0,2.845-0.256,4.267-0.766l4.048-1.532c3.136-1.094,5.434-3.208,6.892-6.345c1.386-2.99,1.568-5.963,0.547-8.916
						l-9.408-43.158l-0.165-0.438c-1.239-3.428-3.61-5.835-7.111-7.221l-49.832-21.825c-2.042-0.911-4.012-1.367-5.907-1.367
						c-3.866,0-7.13,1.641-9.792,4.923l-0.055,0.055l-23.193,28.718L4.325-75.687c-2.589,2.152-4.029,4.923-4.322,8.314
						c-0.328,3.392,0.602,6.382,2.79,8.971l2.735,3.282c1.167,1.422,2.588,2.517,4.266,3.282c1.641,0.802,3.374,1.203,5.197,1.203
						l1.312-0.109l-1.258,1.422c-2.224,2.553-3.245,5.524-3.063,8.916c0.219,3.355,1.604,6.163,4.157,8.425l3.228,2.844
						c2.261,2.042,4.959,3.063,8.095,3.063c1.604,0,3.045-0.256,4.322-0.767l-1.04,1.532c-1.824,2.917-2.371,6.017-1.641,9.299
						c0.729,3.281,2.534,5.853,5.416,7.713l3.61,2.297c2.005,1.276,4.212,1.915,6.619,1.915c2.115,0,4.084-0.492,5.908-1.478
						c1.823-0.984,3.3-2.37,4.431-4.157l2.735-4.157c0.036,2.407,0.693,4.613,1.969,6.619c1.35,2.042,3.155,3.556,5.416,4.54
						l3.993,1.75C70.729-0.311,72.353,0.019,74.067,0.019z"/>
				</g>
				<g>
					<polygon fill-rule="evenodd" clip-rule="evenodd" fill="#E5D6CB" points="17.343,-59.604 56.125,-91.822 54.867,-103.966 
						10.505,-66.988 					"/>
				</g>
				<g>
					<polygon fill-rule="evenodd" clip-rule="evenodd" fill="#E5D6CB" points="110.387,-96.909 127.836,-58.128 132.923,-60.097 
						115.529,-98.879 					"/>
				</g>
				<g>
					<polygon fill-rule="evenodd" clip-rule="evenodd" fill="#E5D6CB" points="55.688,-80.008 21.773,-42.647 29.541,-36.139 
						63.455,-73.498 					"/>
				</g>
				<g>
					<polygon fill-rule="evenodd" clip-rule="evenodd" fill="#E5D6CB" points="47.482,-14.039 80.248,-64.855 71.55,-70.216 
						38.786,-19.346 					"/>
				</g>
				<g>
					<polygon fill-rule="evenodd" clip-rule="evenodd" fill="#E5D6CB" points="75.105,-10.101 101.143,-69.669 91.844,-73.826 
						65.807,-14.259 					"/>
				</g>
			</g>
		</g>
	</g>
</symbol>
<g id="Body">
	<g>
		<path fill-rule="evenodd" clip-rule="evenodd" fill="#E5D6CB" d="M204.949,109.596v19.387h23.77
			c7.342,0,13.598,2.659,18.768,7.979c5.207,5.356,7.811,11.781,7.811,19.274v13.879L110.94,169.89v-13.654
			c0-7.493,2.603-13.918,7.81-19.274c5.17-5.319,11.426-7.979,18.769-7.979h24.162v-19.387H204.949z"/>
		<path fill-rule="evenodd" clip-rule="evenodd" fill="#614E43" d="M208.208,106.336v19.386h20.511
			c8.24,0,15.265,2.979,21.071,8.935c5.845,5.993,8.767,13.187,8.767,21.578v17.194l-150.876-0.281v-16.913
			c0-8.392,2.921-15.585,8.766-21.578c5.807-5.956,12.831-8.935,21.072-8.935h20.847v-19.386H208.208z M114.255,166.575
			l137.728,0.28v-10.62c0-6.594-2.268-12.231-6.801-16.914c-4.569-4.683-10.057-7.023-16.463-7.023h-27.086v-19.386H164.94v19.386
			h-27.422c-6.406,0-11.875,2.341-16.408,7.023c-4.571,4.683-6.855,10.32-6.855,16.914V166.575z"/>
	</g>
	<g>
		<g>
			<polygon fill-rule="evenodd" clip-rule="evenodd" fill="#3DB9E9" points="177.471,268.338 177.471,506.873 91.329,506.873 
				138.024,268.338 			"/>
			<path fill-rule="evenodd" clip-rule="evenodd" fill="#00A3D8" d="M180.73,265.079v245.053H87.282l48.044-245.053H180.73z
				 M140.722,271.654L95.318,503.558h78.838V271.654H140.722z"/>
		</g>
		<g>
			<polygon fill-rule="evenodd" clip-rule="evenodd" fill="#3DB9E9" points="228.83,268.338 275.525,506.873 189.384,506.873 
				189.384,268.338 			"/>
			<path fill-rule="evenodd" clip-rule="evenodd" fill="#00A3D8" d="M231.528,265.079l47.987,245.053h-93.391V265.079H231.528z
				 M192.699,271.654v231.903h78.837l-45.402-231.903H192.699z"/>
		</g>
	</g>
	<g>
		<rect x="174.999" y="268.338" fill-rule="evenodd" clip-rule="evenodd" fill="#3DB9E9" width="16.857" height="48.831"/>
		<path fill-rule="evenodd" clip-rule="evenodd" fill="#00A3D8" d="M178.313,271.654v42.199h10.228v-42.199H178.313z
			 M195.115,320.483h-23.432v-55.404h23.432V320.483z"/>
	</g>
	<g>
		<g>
			<path fill-rule="evenodd" clip-rule="evenodd" fill="#E5D6CB" d="M253.779,194.221v98.898c3.672,1.573,6.632,4.008,8.879,7.305
				c2.285,3.409,3.428,7.154,3.428,11.238c0,5.582-1.967,10.321-5.9,14.217c-3.896,3.934-8.635,5.9-14.217,5.9
				c-3.896,0-7.454-1.03-10.676-3.091c0.749,0.187,1.441,0.281,2.079,0.281c2.397,0,4.42-0.843,6.068-2.528
				c1.686-1.687,2.528-3.729,2.528-6.125c0-2.398-0.843-4.439-2.528-6.126c-1.648-1.686-3.671-2.528-6.068-2.528
				s-4.439,0.843-6.125,2.528c-1.686,1.687-2.528,3.728-2.528,6.126c0,0.674,0.093,1.349,0.28,2.022
				c-2.06-3.222-3.091-6.78-3.091-10.677c0-3.297,0.768-6.406,2.305-9.328c1.461-2.809,3.503-5.151,6.125-7.023v-101.09H253.779z"/>
			<path fill-rule="evenodd" clip-rule="evenodd" fill="#BFAA9D" d="M257.096,190.961V291.04c3.783,2.06,6.78,4.926,8.99,8.597
				c2.211,3.709,3.315,7.718,3.315,12.025c0,6.48-2.284,12.007-6.855,16.576c-4.57,4.57-10.097,6.855-16.577,6.855
				c-4.382,0-8.521-1.217-12.418-3.652l2.528-5.956c0.524,0.113,0.955,0.169,1.293,0.169c1.461,0,2.716-0.524,3.765-1.574
				c1.049-1.049,1.574-2.304,1.574-3.764c0-1.5-0.525-2.754-1.574-3.766c-1.049-1.049-2.304-1.573-3.765-1.573
				c-1.499,0-2.753,0.524-3.766,1.573c-1.048,1.012-1.572,2.266-1.572,3.766l0.168,1.235l-6.013,2.585
				c-2.397-3.82-3.596-7.979-3.596-12.475c0-3.446,0.749-6.743,2.247-9.89c1.461-3.185,3.521-5.882,6.181-8.092v-102.72H257.096z
				 M237.596,197.536v99.46l-1.348,1.011c-2.21,1.574-3.934,3.56-5.17,5.957s-1.873,4.944-1.911,7.643
				c2.285-2.173,5.021-3.26,8.205-3.26c3.296,0,6.105,1.18,8.429,3.54c2.322,2.322,3.483,5.133,3.483,8.43
				c0,3.146-1.086,5.862-3.259,8.147c4.646,0,8.598-1.648,11.857-4.945c3.295-3.259,4.943-7.211,4.943-11.856
				c0-3.371-0.936-6.462-2.81-9.271c-1.873-2.847-4.363-4.927-7.473-6.237l-2.023-0.843v-97.774H237.596z"/>
		</g>
	</g>
	<g>
		<path fill-rule="evenodd" clip-rule="evenodd" fill="#EB3D3C" d="M136.676,128.477h17.307c0,5.207,2.866,9.627,8.598,13.261
			c5.694,3.671,12.605,5.507,20.734,5.507c8.13,0,15.041-1.817,20.735-5.451s8.541-8.053,8.541-13.261l18.15-0.056
			c7.38,0,13.767,2.697,19.161,8.092c5.432,5.469,8.224,12.044,8.373,19.723v37.93h-148.74v-37.93
			c0-7.679,2.641-14.235,7.923-19.667C122.778,131.192,129.183,128.477,136.676,128.477z"/>
		<path fill-rule="evenodd" clip-rule="evenodd" fill="#9C443B" d="M136.676,125.16h20.623v3.316c0,4.008,2.341,7.511,7.023,10.507
			c5.207,3.334,11.538,5.002,18.992,5.002c3.597,0,7.043-0.431,10.34-1.292c3.26-0.861,6.144-2.08,8.654-3.652
			c4.683-3.035,7.023-6.538,7.023-10.509v-3.315l21.409-0.057c8.354,0,15.546,3.035,21.578,9.104
			c6.03,6.067,9.121,13.392,9.271,21.971v41.301H106.22v-41.245c0-8.579,2.978-15.902,8.935-21.971
			C121.11,128.214,128.284,125.16,136.676,125.16z M112.85,156.291v34.67h142.11v-34.613c-0.149-6.781-2.585-12.569-7.306-17.364
			c-4.72-4.795-10.357-7.191-16.913-7.191h-15.172c-1.161,5.394-4.739,9.871-10.732,13.43c-6.106,3.559-13.281,5.339-21.522,5.339
			c-8.278,0-15.452-1.78-21.521-5.339c-6.032-3.559-9.628-8.055-10.79-13.486l-14.328,0.057c-6.593,0-12.212,2.396-16.858,7.191
			C115.173,143.741,112.85,149.511,112.85,156.291z"/>
	</g>
	<g>
		<polygon fill-rule="evenodd" clip-rule="evenodd" fill="#3DB9E9" points="213.266,128.532 225.459,128.532 225.459,268.338 
			141.396,268.338 141.396,128.532 153.533,128.532 153.533,177.308 213.266,177.308 		"/>
		<path fill-rule="evenodd" clip-rule="evenodd" fill="#00A3D8" d="M228.774,125.217v146.438H138.08V125.217h18.769v48.775h53.157
			v-48.775H228.774z M216.581,131.792v48.831h-66.307v-48.831h-5.619v133.287h77.488V131.792H216.581z"/>
	</g>
	<g>
		<path fill-rule="evenodd" clip-rule="evenodd" fill="#737477" d="M234.899,477.99c12.699,0,23.545,3.278,32.535,9.834
			c8.991,6.518,13.486,14.403,13.486,23.656h-92.099c0-9.253,4.495-17.139,13.486-23.656
			C211.299,481.269,222.163,477.99,234.899,477.99z"/>
		<path fill-rule="evenodd" clip-rule="evenodd" fill="#373535" d="M234.899,474.675c6.481,0,12.699,0.899,18.655,2.698
			c5.919,1.797,11.201,4.382,15.847,7.754c4.795,3.484,8.466,7.492,11.014,12.024c2.548,4.533,3.82,9.31,3.82,14.329v3.315h-98.729
			v-3.315c0-5.02,1.272-9.796,3.821-14.329c2.547-4.532,6.219-8.54,11.014-12.024c4.645-3.372,9.927-5.957,15.846-7.754
			C222.144,475.574,228.381,474.675,234.899,474.675z M204.275,490.521c-6.819,4.907-10.79,10.789-11.914,17.644h85.02
			c-1.087-6.854-5.039-12.736-11.856-17.644c-4.047-2.96-8.729-5.226-14.048-6.8c-5.245-1.573-10.771-2.359-16.577-2.359
			c-5.844,0-11.389,0.786-16.633,2.359C212.984,485.296,208.32,487.562,204.275,490.521z"/>
	</g>
	<g>
		<path fill-rule="evenodd" clip-rule="evenodd" fill="#737477" d="M177.303,511.48H85.147c0-9.253,4.496-17.139,13.486-23.656
			c8.991-6.556,19.855-9.834,32.592-9.834c12.736,0,23.601,3.278,32.591,9.834C172.808,494.342,177.303,502.228,177.303,511.48z"/>
		<path fill-rule="evenodd" clip-rule="evenodd" fill="#373535" d="M176.797,497.151c2.547,4.533,3.821,9.31,3.821,14.329v3.315
			H81.832v-3.315c0-5.02,1.273-9.796,3.822-14.329c2.584-4.532,6.274-8.54,11.069-12.024c4.645-3.372,9.927-5.957,15.846-7.754
			c5.958-1.799,12.176-2.698,18.657-2.698c6.518,0,12.755,0.899,18.711,2.698c5.92,1.797,11.201,4.382,15.847,7.754
			C170.578,488.611,174.25,492.619,176.797,497.151z M161.85,490.521c-4.046-2.96-8.709-5.226-13.992-6.8
			c-5.244-1.573-10.788-2.359-16.632-2.359c-5.807,0-11.332,0.786-16.577,2.359c-5.319,1.574-10.002,3.84-14.048,6.8
			c-6.819,4.907-10.77,10.789-11.856,17.644h84.962C172.657,501.311,168.705,495.429,161.85,490.521z"/>
	</g>
</g>
<g transform="translate(185,125)">
<g id="Head" >
	<g id="Layer_1" transform="translate(-185,-125)">
		
			<use xlink:href="#Symbol_2"  width="124.496" height="126.903" x="-0.051" y="-126.899" transform="matrix(1.0173 -0.143 -0.143 -1.0173 102.2837 4.0703)" overflow="visible"/>
	</g>
	    	<animateTransform id="headAnim" attributeName="transform" type="rotate" values="0;-10;0;10;0" begin="Head.click;headAnim.end + 3.4s" dur="1.5s" repeatCount="2" keyTimes="0;0.25;0.5;0.75;1" keySplines="0 1 1 1;1 0 1 1;0 1 1 1;1 0 1 1" calcMode="spline" fill="freeze"/>
</g>
</g>

<g transform="translate(96,182)">
<g id="Hand">
	<g id="Layer_1_1_" transform="translate(-96, -212)">
		
			<use xlink:href="#Symbol_4"  width="145.559" height="138.719" x="-0.061" y="-138.7" transform="matrix(1.0125 -0.1739 -0.1739 -1.0125 -0.564 138.0396)" overflow="visible"/>
	</g>
	
    	<animateTransform id="handAnim" attributeName="transform" type="rotate" values="0;-15;0;15;0" begin="Head.click;handAnim.end + 5s" dur="1s" repeatCount="3" keyTimes="0;0.25;0.5;0.75;1" keySplines="0 1 1 1;1 0 1 1;0 1 1 1;1 0 1 1" calcMode="spline" fill="freeze"/>
</g>
</g>

</svg>
