<?xml version="1.0" encoding="utf-8"?>
<!-- Generator: Adobe Illustrator 16.0.0, SVG Export Plug-In . SVG Version: 6.00 Build 0)  -->
<!DOCTYPE svg PUBLIC "-//W3C//DTD SVG 1.1//EN" "http://www.w3.org/Graphics/SVG/1.1/DTD/svg11.dtd">
<svg version="1.1" xmlns="http://www.w3.org/2000/svg" xmlns:xlink="http://www.w3.org/1999/xlink" x="0px" y="0px"
	 width="656.967px" height="353.982px" viewBox="0 0 656.967 353.982" enable-background="new 0 0 656.967 353.982"
	 xml:space="preserve">
<g id="CROWN">
	<path fill="#FDC93B" d="M245.837,74.865c-0.129-0.491-0.585-0.886-1.195-0.647c-3.552,1.384-7.064,3.74-9.565,6.724
		c-0.311-0.666-0.639-1.322-0.96-1.969c-0.224-0.713-0.46-1.427-0.722-2.145c-1.18-4.672-2.247-9.384-4.191-13.783
		c0.01-0.049,0.01-0.104,0.021-0.149c0.231-0.9-1.111-1.618-1.672-0.824c-2.043,2.885-1.557,7.548-2.438,10.868
		c-1.035,3.889-2.009,7.823-2.63,11.809c-0.533-0.854-1.123-1.674-1.801-2.441c-1.78-2.025-4.033-3.393-6.279-4.797
		c-0.146-0.557-0.678-0.793-1.142-0.723c-0.45-0.289-0.896-0.582-1.335-0.889c-0.74-0.521-1.873,0.065-1.542,1.038
		c2.268,6.665,2.947,13.841,3.061,20.86c0.006,0.273,0.104,0.477,0.253,0.622c0.088,0.29,0.3,0.552,0.656,0.672
		c1.306,0.437,2.611,0.358,3.976,0.332c2.405-0.046,4.793,0.125,7.195,0.104c4.609-0.039,9.198,0.714,13.806,0.443
		c0.485-0.028,0.983-0.501,0.906-1.019c-0.591-3.943,1.024-8.908,2.172-12.648c1.067-3.481,3.269-6.875,3.896-10.441
		C246.391,75.386,246.17,75.038,245.837,74.865z"/>
</g>
<g id="BODY">
	<g>
		<path fill="#FFF8A6" d="M534.952,171.207c-5.361-1.438-10.957-2.114-16.367-2.102c-19.374,0.032-37.546,7.312-54.594,16.013
			c-1.543,0.656-3.065,1.357-4.562,2.135c-3.92,2.028-7.723,4.24-11.443,6.573c-8.006,4.657-15.742,9.69-23.242,15.248
			c-3.984,2.956-7.908,5.969-11.688,9.182c-0.521,0.366-1.042,0.739-1.562,1.105c-15.056,10.41-30.702,20.004-47.036,28.273
			c-15.307,7.756-31.255,13.88-48.25,16.584c-18.436,2.943-37.199,5.225-55.898,4.602c-8.873-0.303-17.85-0.843-26.562-2.59
			c-8.231-1.652-16.812-3.008-24.701-5.939c-7.839-2.915-15.401-7.279-22.684-11.377c-7.421-4.178-14.932-7.719-21.736-12.923
			c-7.235-5.532-14.503-11.084-21.565-16.842c-7.171-5.847-13.897-11.997-20.677-18.288c-6.208-5.756-12.068-12.157-17.588-18.583
			c-5.371-6.245-8.81-13.333-11.655-21.006c-1.594-4.297-4.332-8.025-5.733-12.427c-0.045-0.147-0.089-0.303-0.135-0.45
			c-0.045-0.006-0.097-0.019-0.141-0.032c-2.416-13.847-8.301-29.75-18.994-33.168c0.013-0.007,0.019-0.015,0.031-0.02
			c1.24-0.733,2.764-1.447,4.364-1.974c2.134-0.7,4.407-1.066,6.323-0.693c1.61,0.321,3.148,1.002,4.536,1.92
			c0,0,0.006-0.006,0.006,0.007c1.389,0.927,2.622,2.09,3.617,3.368c0.199,0.25,0.392,0.508,0.579,0.764
			c2.127,2.886,3.843,6.176,5.758,9.177c2.164,3.386,4.504,6.656,7.337,9.522c2.172,2.197,4.71,3.689,7.448,4.689
			c0.757-0.108,1.516-0.223,2.268-0.34c1.613-0.263,3.219-0.577,4.818-0.931c0.637-0.142,1.28-0.29,1.916-0.443
			c1.016-0.244,2.025-0.508,3.034-0.778c5.017-1.35,9.99-2.975,14.901-4.523c2.151-0.681,4.304-1.362,6.45-2.062
			c3.097-1.01,6.182-2.036,9.259-3.103c0.078-0.027,0.154-0.053,0.232-0.078c3.148-1.092,6.29-2.217,9.406-3.387
			c16.06-6.007,31.885-13.391,48.809-16.707c16.586-3.244,34.294-0.925,50.373,3.889c7.735,2.318,14.932,5.429,21.821,9.639
			c0.629,0.385,1.259,0.771,1.896,1.155c6.496,3.946,13.088,7.871,19.199,12.383c2.738,2.012,5.417,4.093,8.096,6.182
			c3.896,3.034,7.775,6.072,11.799,8.938c0.244,0.172,0.494,0.348,0.738,0.521c3.694,2.236,7.415,4.421,11.104,6.67
			c0.732,0.451,1.471,0.866,2.225,1.266c0.705,0.366,1.413,0.712,2.133,1.047c2.756,1.292,5.607,2.339,8.514,3.412
			c16.982,6.304,33.818,12.318,51.617,15.551c1.639,0.302,3.283,0.571,4.941,0.823c6.684,1.008,13.712,1.816,20.581,1.792
			c1.825-0.006,3.631-0.07,5.425-0.212c9.053-0.694,17.688-2.737,26.434-5.077c8.617-2.308,17.049-5.269,25.755-7.255
			c8.694-1.984,17.472-2.885,26.358-3.488c4.459-0.304,9.202-0.341,13.808,0.276c3.888,0.521,7.681,1.497,11.137,3.174
			C533.78,170.578,534.366,170.886,534.952,171.207z"/>
		<path fill="#FDF973" d="M508.239,166.838c-8.887,0.604-17.664,1.504-26.358,3.488c-8.706,1.986-17.138,4.947-25.755,7.255
			c-8.745,2.34-17.381,4.383-26.434,5.077c-8.547,0.656-17.549-0.31-26.006-1.58c-1.658-0.252-3.303-0.521-4.941-0.823
			c-8.662-0.431-17.297-1.111-25.979-2.03c-13.263-1.401-26.378-2.358-39.722-2.012c-13.508,0.348-26.971,1.522-40.477,1.908
			c-13.487,0.386-26.756-0.79-40.206-1.6c-13.159-0.803-26.082-2.647-39.145-4.384c-6.516-0.86-13.024-1.908-19.554-2.666
			c-6.265-0.731-12.1-2.184-18.19-3.758c-13.54-3.496-26.841-6.51-39.146-13.398c-6.201-3.47-12.602-6.964-18.23-11.329
			c-0.319-0.249-0.635-0.493-0.957-0.744c-2.236,0.539-4.479,1.008-6.734,1.374c-0.752,0.117-1.511,0.231-2.268,0.34
			c-2.738-1-5.276-2.492-7.448-4.689c-2.833-2.866-5.173-6.137-7.337-9.522c-1.915-3.001-3.631-6.291-5.758-9.177
			c-1.375-1.399-2.776-2.782-4.196-4.132c0-0.013-0.006-0.007-0.006-0.007c-1.388-0.918-2.926-1.599-4.536-1.92
			c-1.916-0.373-4.189-0.007-6.323,0.693c3.785,3.336,7.44,6.812,10.993,10.404c5.629,5.681,10.5,12.149,16.496,17.451
			c5.956,5.263,12.535,9.825,18.653,14.908c5.994,4.979,11.952,10.029,18.196,14.701c13.354,9.986,27.612,18.834,41.761,27.625
			c13.86,8.604,29.09,13.923,45.134,16.726c32.701,5.712,66.872,4.575,99.479-1.26c17.258-3.084,34.401-6.979,51.596-10.474
			c16.522-3.354,32.914-7.119,49.08-11.932c7.035-2.094,13.931-4.589,20.807-7.146c2.467-0.526,4.916-1.098,7.338-1.702
			c7.859-1.96,15.588-4.941,22.754-8.894c0.849-0.25,1.695-0.507,2.543-0.745c8.843-2.486,18.096-4.936,27.279-5.577
			c4.89-0.335,9.701,0.032,14.586,0.025c0.943-0.006,1.883-0.104,2.819-0.199C517.441,166.497,512.698,166.534,508.239,166.838z"/>
		<path fill="#FFDE30" d="M403.686,181.078c-1.658-0.252-3.303-0.521-4.941-0.823c-17.799-3.232-34.635-9.247-51.617-15.551
			c-2.906-1.073-5.758-2.12-8.514-3.412c-12.307-3.084-24.559-6.419-36.762-9.786c-20.967-5.775-41.922-11.996-63.518-14.972
			c-21.373-2.942-42.853-3.509-64.393-3.488c-10.782,0.005-21.629,0.224-32.417-0.168c-2.146,0.7-4.299,1.382-6.45,2.062
			c-5.9,1.857-11.883,3.837-17.936,5.302c-0.636,0.153-1.279,0.302-1.916,0.443c2.758,1.459,5.251,3.708,7.859,5.199
			c4.434,2.537,8.971,4.902,13.416,7.427c8.638,4.904,17.415,8.893,26.951,11.74c9.497,2.84,19.378,5.3,29.178,6.816
			c10.082,1.567,20.312,2.031,30.451,3.104c10.609,1.118,21.191,1.817,31.82,2.622c10.699,0.811,21.186,1.773,31.923,1.131
			c10.403-0.624,20.839-0.315,31.255-0.276c10.681,0.038,21.34-0.425,32.013-0.63c12.157-0.238,24.161,0.212,36.241,1.612
			c11.888,1.375,23.768,2.943,35.668,4.165c0.996,0.102,1.755-0.2,2.269-0.727C417.398,182.895,410.37,182.086,403.686,181.078z"/>
		<path fill="#EBC414" d="M334.256,158.979c-3.688-2.249-7.409-4.434-11.104-6.67c-0.244-0.173-0.494-0.349-0.738-0.521
			c-6.786-4.84-13.186-10.178-19.895-15.12c-6.111-4.512-12.703-8.437-19.199-12.383c-14.42-3.732-29.07-6.341-44.01-7.229
			c-10.191-0.604-20.524-0.546-30.657,0.803c-9.658,1.285-19.11,3.617-28.58,5.815c-9.69,2.249-19.49,4.312-29.29,6.1
			c-3.077,1.066-6.162,2.093-9.259,3.103c-2.146,0.7-4.299,1.382-6.45,2.062c-4.911,1.549-9.885,3.174-14.901,4.523
			c3.186,1.139,6.431,1.991,9.804,2.531c9.421,1.511,19.155,0.952,28.646,0.566c19.604-0.791,39.036-4.222,58.665-4.369
			c10.34-0.083,20.872,0.521,31.134,1.761c9.813,1.183,19.496,3.816,29.037,6.316c19.322,5.062,38.715,10.05,58.34,13.847
			c0.224,0.045,0.456,0.091,0.682,0.129C335.727,159.846,334.989,159.431,334.256,158.979z"/>
		<path fill="#D0A61D" d="M310.616,142.851c-0.326-0.161-0.654-0.327-0.976-0.501c-6.375-3.418-12.37-7.538-18.751-10.962
			c-5.93-3.181-12.066-6.105-18.525-8.044c-6.328-1.909-12.877-2.868-19.431-3.562c-6.542-0.688-13.103-1.504-19.689-1.483
			c-6.514,0.024-13.056,0.41-19.546,0.938c-14.014,1.137-27.733,4.221-41.484,7.017c-7.043,1.435-14.098,2.853-21.197,3.444
			c3.148-1.092,6.29-2.217,9.406-3.387c16.06-6.007,31.885-13.391,48.809-16.707c16.586-3.244,34.294-0.925,50.373,3.889
			c7.735,2.318,14.932,5.429,21.821,9.639c0.629,0.385,1.259,0.771,1.896,1.155c6.496,3.946,13.088,7.871,19.199,12.383
			C305.258,138.681,307.937,140.762,310.616,142.851z"/>
	</g>
	<path fill="#D0A61D" d="M181.077,119.256c-0.111-0.084-0.235-0.163-0.383-0.227c-6.393-2.796-15.563-5.758-21.759-0.979
		c-2.385,1.84-4.532,4.896-4.959,7.916c-0.422,2.999,1.729,5.604,4.236,6.967c3.031,1.649,6.36,1.154,9.634,0.579
		c2.34-0.413,4.516-1.204,6.494-2.388c1.421-0.319,2.767-0.946,3.884-1.92c0.806-0.702,1.343-1.539,1.816-2.453
		c1.251-1.461,2.384-3.108,2.605-4.835C182.792,120.787,182.073,119.729,181.077,119.256z"/>
	<path fill="#D0A61D" d="M321.866,129.965c-3.314-11.945-13.348-22.147-24.653-26.899c-7.153-3.007-14.301-1.262-21.49,0.893
		c-3.698,1.109-7.392,2.321-10.852,4.052c-1.802,0.903-6.073,3.989-8.23,3.303c-1.272-0.405-2.309-0.033-3,0.693
		c-2.209,0.182-4.414,0.372-6.615,0.616c-1.295-0.167-2.602,0.011-3.997,0.728c-3.52,1.807-0.837,6.348,2.475,5.872
		c0.484-0.069,0.973-0.13,1.461-0.187c1.007,0.397,2.697,1.431,3.012,1.58c1.342,0.635,2.657,1.308,3.898,2.126
		c2.947,1.943,5.629,4.646,8.09,7.16c4.73,4.838,9.08,9.912,14.521,13.99c5.93,4.443,12.385,8.421,19.187,11.396
		c6.283,2.75,13.738,4.476,20.347,1.807C325.573,153.234,324.037,137.783,321.866,129.965z"/>
	<g>
		<path fill="#D0A61D" d="M267.266,109.011c0.529,0.942,2.086,0.313,1.761-0.742c-0.497-1.609-1.558-2.94-2.346-4.406
			c-0.712-1.327-1.507-2.646-2.805-3.48c-0.861-0.554-2.29-1.107-2.991-0.01c-0.093,0.144-0.15,0.3-0.193,0.464
			c-0.252,0.275-0.37,0.682-0.174,1.106c0.069,0.148,0.145,0.292,0.215,0.439c0.1,0.449,0.236,0.886,0.332,1.259
			c0.099,0.386,0.357,0.594,0.654,0.659c1.414,2.562,3.105,4.932,5.055,7.156c0.818,0.935,2.178-0.435,1.363-1.363
			c-0.651-0.743-1.268-1.505-1.854-2.283c0.009-0.01,0.014-0.021,0.021-0.03C266.661,108.143,266.995,108.53,267.266,109.011z"/>
		<path fill="#D0A61D" d="M163.652,111.526c-0.24-1.495-0.596-3.657-2.056-4.477c-0.489-0.274-1.317-0.061-1.416,0.576
			c-0.564,3.654-0.066,7.208,0.287,10.858c0.119,1.224,2.048,1.236,1.928,0c-0.023-0.249-0.051-0.498-0.078-0.747
			c0.482,0.194,1.128,0.012,1.329-0.604C164.212,115.403,163.931,113.286,163.652,111.526z"/>
		<path fill="#D0A61D" d="M560.408,203.709c-0.745,3.842-2.505,7.453-5.28,10.325c-0.554,0.584-1.157,1.138-1.801,1.658
			c-0.109,0.09-0.224,0.179-0.333,0.262c-0.495,0.381-0.996,0.735-1.517,1.068c-1.67,1.362-3.49,2.436-5.411,3.283
			c-0.597,0.264-1.208,0.508-1.831,0.733c-3.373,1.208-7.01,1.824-10.73,2.196c-0.321,0.033-0.649,0.065-0.971,0.092
			c-0.334,0.03-0.668,0.056-1.008,0.088c-3.374,0.277-6.806,0.463-10.205,0.329c-0.642-0.026-1.279-0.064-1.922-0.115
			c-0.597-0.045-1.188-0.104-1.777-0.175c-1.852-0.219-3.684-0.559-5.503-0.943c-0.673-0.143-1.343-0.29-2.017-0.451
			c-2.044-0.462-4.08-0.964-6.131-1.406c-0.326-0.07-0.662-0.143-0.988-0.213c-0.008,0-0.021-0.006-0.026-0.006
			c-0.046-0.013-0.089-0.021-0.135-0.025c-0.552-0.129-1.099-0.244-1.651-0.359c-0.027-0.007-0.059-0.015-0.084-0.021
			c-0.02-0.007-0.038-0.007-0.057-0.014c-2.584-0.545-5.161-1.09-7.749-1.624c-0.644-0.136-1.293-0.271-1.936-0.399
			c-2.558-0.533-5.122-1.06-7.679-1.593c-0.649-0.135-1.305-0.277-1.953-0.411c-2.029-0.425-4.061-0.854-6.092-1.291
			c-0.636-0.136-1.271-0.271-1.908-0.412c-0.006,0-0.013,0-0.02-0.007c-3.592-0.777-7.178-1.657-10.77-2.512
			c-0.629-0.155-1.26-0.302-1.889-0.443c-0.227-0.059-0.443-0.109-0.668-0.161c-0.655-0.148-1.311-0.303-1.967-0.443
			c-2.34-0.526-4.685-1.016-7.035-1.432c-0.643-0.11-1.286-0.22-1.936-0.322c-1.033-0.168-2.068-0.315-3.103-0.444
			c-1.915-0.237-3.798-0.397-5.655-0.462c-0.643-0.025-1.285-0.039-1.928-0.039c-5.514-0.013-10.84,0.81-16.218,2.737
			c0.995-0.849,1.99-1.683,2.993-2.512c-0.037-0.315,0.098-0.637,0.482-0.848c0.295-0.161,0.598-0.309,0.893-0.464
			c0.053-0.23,0.18-0.449,0.393-0.609c0.912-0.669,1.98-1.523,3.117-2.038c2.787-2.19,5.635-4.305,8.591-6.29
			c0.05-0.039,0.103-0.077,0.153-0.109c0.592-0.398,1.189-0.79,1.787-1.182c2.635-1.717,5.32-3.355,8.045-4.923
			c0.109-0.063,0.212-0.122,0.321-0.187c0.553-0.321,1.104-0.635,1.664-0.944c0.039-0.021,0.077-0.045,0.114-0.064
			c1.686-0.944,3.388-1.862,5.098-2.758c0.596-0.313,1.188-0.621,1.792-0.93c1.878-0.965,3.772-1.902,5.681-2.821
			c0.721-0.348,1.445-0.694,2.172-1.035c1.914-0.905,3.842-1.786,5.77-2.647c0.708-0.321,1.408-0.475,2.115-0.789l0.006-0.008
			c2.166-0.95,4.332-1.997,6.503-2.64h0.006l0.007-0.007c0.635-0.637,1.259-0.688,1.895-0.952c0.529-0.219,1.047-0.57,1.576-0.79
			c1.625-0.674,3.257-1.464,4.908-2.106h0.006c0.02,0,0.033,0.024,0.053,0.052c0.019,0.031,0.044,0.076,0.062,0.076
			c0.245-0.031,0.496-0.128,0.74-0.128h0.006c0.039,0,0.084-0.175,0.122-0.187c0.038-0.014,0.083-0.032,0.122-0.044
			c3.573-1.363,7.197-2.661,10.873-3.689c0.006,0,0.006-0.039,0.012-0.039c0.643-0.18,1.292-0.373,1.941-0.539h0.007
			c0.591-0.155,1.182-0.283,1.778-0.425c1.961-0.373,3.921-0.86,5.932-0.86h0.007c0.013,0,0.03,0.083,0.046,0.083
			c0.693-0.071,1.393-0.083,2.1-0.083h0.007c0.038,0,0.077-0.007,0.116-0.007c2.429-0.199,4.883-0.271,7.338-0.187
			c0.302,0.013,0.611,0.02,0.912,0.038c5.006,0.23,9.992,1.078,14.715,2.673c0.008,0,0.02,0.007,0.026,0.007
			c0.718,0.231,1.419,0.437,2.12,0.721c0.014,0,0.025,0.006,0.039,0.013c1.317,0.507,2.602,1.104,3.859,1.728
			c1.551,0.785,3.061,1.434,4.507,2.68l0.005,0.006c0.021,0.021,0.039,0.021,0.059,0.039c0.006,0,0.006,0,0.006,0
			c0.533,0,1.061,0.694,1.574,1.08l0.007,0.006c2.59,1.966,4.94,4.215,6.921,6.773c0.63,0.809,1.221,1.631,1.773,2.492
			c1.51,2.365,2.705,4.909,3.495,7.615c0.406,1.368,0.663,2.763,0.804,4.163C561.307,199.211,561.089,201.466,560.408,203.709z"/>
		<path fill="#D0A61D" d="M97.142,165.564c-0.425-2.858-1.921-5.686-2.827-8.507c-1.1-5.694-1.684-11.45-2.48-17.189
			c-0.077-0.257-0.121-0.506-0.121-0.758v-0.006c0-0.136-0.078-0.271-0.162-0.405c-0.069-0.115-0.147-0.231-0.187-0.347
			c-0.192-1.89-0.482-3.778-0.802-5.642c-0.007-0.045-0.021-0.096-0.025-0.142c-0.483-2.763-1.184-5.468-2.211-8.02
			c-0.084-0.204-0.23-0.411-0.335-0.622c-0.025-0.039-0.044-0.071-0.058-0.11c0-0.012-0.077-0.02-0.077-0.032c0,0,0,0,0-0.006
			c-0.591-0.996-0.637-2.037-1.633-3.065c-0.088-0.097-0.186-0.187-0.295-0.282c0,0,0-0.02,0-0.031c0-0.014,0.143-0.033,0.143-0.033
			c-1.671-2.743-3.818-5.096-6.632-6.381h-0.007c-0.393,0-0.79-0.199-1.202-0.275c-0.128-0.027-0.256-0.007-0.385-0.033
			c-0.148-0.039-0.288-0.057-0.437-0.09c-0.631-0.154-1.28-0.231-1.928-0.218c-0.463-0.104-0.933-0.175-1.395-0.206
			c-1.035,0.051-1.979,0.31-2.827,0.706c-0.746,0.354-1.414,0.823-2.024,1.39c-0.502,0.455-0.964,0.988-1.376,1.56
			c-0.642,1.376-0.956,2.969-1.06,4.518c-0.934,3.201-0.521,6.542,0.701,9.762c-0.071,0.219-0.077,0.462,0.032,0.726
			c0.288,0.663,0.583,1.33,0.905,2.004c0.521,1.112,1.093,2.224,1.716,3.297c0.674,1.15,1.42,2.255,2.241,3.246
			c0.585,0.707,1.228,1.375,1.917,2.018c0.603,0.564,1.239,1.117,1.881,1.656c1.685,1.409,3.438,2.751,4.974,4.21
			c0.604,0.572,1.195,1.15,1.773,1.741c0.51,0.507,1.131,1.015,1.633,1.536c0.045,0.045,0.089,0.083,0.129,0.128
			c1.183,1.284,2.281,2.577,3.478,3.979c0,0.013,0,0.018,0.004,0.031c0.104,0.129,0.214,0.251,0.315,0.38c0,0.006,0,0.006,0,0.013
			c0,0.591,0.765,1.194,1.163,1.812c0.244,0.38,0.206,0.771,0.618,1.175c0.025,0.027,0.05,0.046,0.077,0.071
			c0.045,0.046,0.018,0.084,0.07,0.122v0.006c1.285,2.552,2.961,5.47,5.172,7.256C96.377,167.133,97.284,166.534,97.142,165.564z
			 M92.703,159.667c0.142,0.218,0.289,0.436,0.438,0.662c0.173,0.257,0.333,0.525,0.5,0.79c0.039,0.09,0.077,0.186,0.116,0.281
			C93.389,160.83,93.043,160.251,92.703,159.667z"/>
		<path fill="#FFF8A6" d="M119.454,178.381c-4.072,1.669-6.177,5.248-9.503,7.897c-3.299,2.626-7.055,4.776-9.19,8.557
			c-1.426,2.523,2.459,4.792,3.885,2.27c1.762-3.119,5.055-4.992,7.815-7.129c2.757-2.133,4.941-5.927,8.189-7.258
			C123.291,181.635,122.134,177.281,119.454,178.381z"/>
		<path fill="#FFF8A6" d="M135.301,195.955c-8.892,6.374-13.944,18.051-18.155,27.794c-1.139,2.63,2.735,4.924,3.882,2.27
			c2.077-4.801,4.35-9.516,6.975-14.043c2.519-4.339,5.412-9.155,9.569-12.136C139.903,198.167,137.66,194.265,135.301,195.955z"/>
		<path fill="#FFF8A6" d="M414.637,231.969c-5.127-4.158-9.793-8.83-14.457-13.493c-2.049-2.05-5.23,1.131-3.18,3.18
			c4.664,4.662,9.328,9.335,14.457,13.493C413.686,236.957,416.887,233.792,414.637,231.969z"/>
		<path fill="#D0A61D" d="M282.958,89.614c-1.333,4.823-1.967,9.732-2.008,14.734c-0.025,2.896,4.473,2.897,4.497,0
			c0.04-4.621,0.616-9.083,1.848-13.539C288.067,88.016,283.727,86.822,282.958,89.614z"/>
		<path fill="#D0A61D" d="M336.226,125.891c-3.396,2.853-11.175,11.006-15.909,7.359c-2.292-1.767-4.533,2.14-2.271,3.883
			c6.976,5.373,16.341-3.845,21.361-8.062C341.626,127.207,338.43,124.039,336.226,125.891z"/>
		<path fill="#D0A61D" d="M177.025,111.402c-1.005-0.587-2.522-0.278-3.077,0.807c-1.246,2.434-2.159,4.841-0.643,7.41
			c1.471,2.492,5.359,0.231,3.882-2.271c-0.573-0.972,0.19-1.983,0.644-2.869C178.384,113.397,178.113,112.04,177.025,111.402z"/>
		<path fill="#D0A61D" d="M156.612,122.661c-1.889-0.05-3.446-1.228-5.186-1.847c-1.144-0.407-2.461,0.459-2.766,1.57
			c-0.342,1.244,0.421,2.357,1.569,2.767c0.878,0.312,1.686,0.795,2.54,1.161c1.241,0.532,2.486,0.811,3.842,0.848
			C159.507,127.235,159.505,122.738,156.612,122.661z"/>
	</g>
	<g>
		<path fill="#EBC414" d="M528.204,181.735c-0.538-1.004-1.492-1.763-2.486-2.279c-0.048-0.024-0.1-0.039-0.148-0.061
			c-0.121-0.057-0.244-0.113-0.374-0.153c-0.048-0.014-0.096-0.018-0.144-0.03c-0.133-0.035-0.268-0.069-0.406-0.087
			c-0.076-0.01-0.152-0.007-0.229-0.01c-1.064-0.063-2.173,0.36-2.661,1.379c-0.725,1.515-1.08,3.275-0.103,4.785
			c0.946,1.459,2.585,2.031,4.259,2.055c1.563,0.021,2.896-1.345,2.896-2.896C528.805,183.488,528.657,182.58,528.204,181.735z"/>
		<path fill="#EBC414" d="M541.887,187.334c-4,0-4,5.791,0,5.791S545.887,187.334,541.887,187.334z"/>
		<path fill="#EBC414" d="M519.364,192.969c-0.82-0.852-1.872-1.207-2.935-1.186c-0.381-0.192-0.808-0.313-1.274-0.313H513.5
			c-1.521,0-2.955,1.327-2.896,2.896c0.077,2.061,1.206,3.83,2.949,4.905c1.61,0.994,3.823,1.264,5.392,0.054
			C520.877,197.834,521.066,194.735,519.364,192.969z"/>
		<path fill="#EBC414" d="M79.145,121.997c-0.089-0.081-0.186-0.056-0.277-0.13c-0.521-0.633-1.282-0.967-2.183-0.967h-1.241
			c-2.258,0-3.524,2.359-2.501,4.275c0.555,1.035,1.504,1.822,2.643,2.14c1.576,0.438,3.231-0.392,4.014-1.788
			C80.204,124.448,80.1,122.867,79.145,121.997z"/>
		<path fill="#EBC414" d="M74.616,131.491c-0.028-0.653-0.545-1.267-1.24-1.241c-0.088,0.003-0.176,0.013-0.264,0.024
			c-0.371-0.046-0.751,0.063-1.027,0.339c-0.057,0.057-0.113,0.113-0.17,0.17c-0.027,0.024-0.051,0.052-0.077,0.076
			c-0.056,0.056-0.11,0.112-0.166,0.168c-0.277,0.276-0.372,0.662-0.327,1.032c0.003,0.11,0.029,0.211,0.058,0.31
			c0.002,0.001,0.001,0.003,0.002,0.005c0.228,0.767,1.158,1.165,1.972,1.185c0.625,0.016,1.302-0.582,1.24-1.24
			c-0.014-0.146-0.033-0.287-0.066-0.425C74.595,131.769,74.623,131.634,74.616,131.491z"/>
		<path fill="#EBC414" d="M77.887,138.109c-1,0-1,2.481,0,2.481C79.887,140.591,79.887,138.109,77.887,138.109z"/>
		<path fill="#EBC414" d="M311.774,148.956c-0.13-0.397-0.438-0.775-0.867-0.867c-0.171-0.036-0.337-0.052-0.51-0.053
			c-0.648-0.002-1.271,0.572-1.24,1.241c0.004,0.078,0.014,0.153,0.031,0.227c-0.011,0.062-0.025,0.119-0.031,0.188
			c-0.059,0.648,0.613,1.269,1.24,1.241c0.588-0.026,0.986-0.38,1.153-0.882c0.013-0.015,0.018-0.021,0.005-0.001
			C311.778,149.742,311.896,149.332,311.774,148.956z"/>
		<path fill="#EBC414" d="M315.825,145.919c-0.01-0.011-0.022-0.013-0.033-0.022c-0.219-0.223-0.51-0.365-0.844-0.342
			c-0.156,0.011-0.305,0.047-0.45,0.094c-0.011,0.003-0.019,0.006-0.027,0.01c-0.663,0.223-1.176,0.796-1.177,1.55
			c-0.002,1.142,1.084,1.632,2.068,1.656c0.668,0.016,1.242-0.582,1.24-1.24C316.6,146.891,316.333,146.427,315.825,145.919z"/>
		<path fill="#EBC414" d="M314.887,153.001c-2,0-2,2.481,0,2.481S316.887,153.001,314.887,153.001z"/>
		<path fill="#EBC414" d="M305.887,152.588c-2,0-2,2.48,0,2.48S307.887,152.588,305.887,152.588z"/>
		<path fill="#EBC414" d="M158.224,127.305c-0.27-0.271-0.643-0.37-1.004-0.334c-0.093-0.021-0.189-0.034-0.288-0.03
			c-0.67,0.03-1.241,0.546-1.24,1.241c0.002,0.632,0.251,1.345,0.95,1.504c0.66,0.151,1.139-0.186,1.582-0.627
			C158.699,128.586,158.697,127.777,158.224,127.305z"/>
		<path fill="#EBC414" d="M155.887,124.045c-1,0-1,2.482,0,2.482S156.887,124.045,155.887,124.045z"/>
		<path fill="#EBC414" d="M301.711,150.933c-0.027-0.619-0.55-1.308-1.241-1.241c-0.572,0.055-1.107,0.259-1.399,0.797
			c-0.213,0.394-0.254,0.83-0.256,1.271c0,0.65,0.572,1.271,1.241,1.241c0.647-0.029,1.189-0.508,1.233-1.161
			C301.553,151.624,301.729,151.316,301.711,150.933z"/>
		<path fill="#EBC414" d="M272.387,127.768c-0.672,0.03-1.5,0.546-1.5,1.241v0.414c0,0.649,0.83,1.271,1.5,1.241
			c0.672-0.03,1.5-0.546,1.5-1.241v-0.414C273.887,128.359,273.059,127.738,272.387,127.768z"/>
		<path fill="#EBC414" d="M515.887,187.334c-1,0-1,2.481,0,2.481C517.887,189.815,517.887,187.334,515.887,187.334z"/>
		<path fill="#EBC414" d="M504.887,179.062c-1,0-1,2.481,0,2.481S505.887,179.062,504.887,179.062z"/>
		<path fill="#EBC414" d="M178.887,123.218c-1,0-1,2.482,0,2.482S179.887,123.218,178.887,123.218z"/>
		<path fill="#EBC414" d="M294.387,149.691c-0.672,0.03-1.5,0.546-1.5,1.241v0.827c0,0.65,0.83,1.271,1.5,1.241
			c0.672-0.03,1.5-0.546,1.5-1.241v-0.827C295.887,150.283,295.057,149.661,294.387,149.691z"/>
		<path fill="#EBC414" d="M315.412,131.854c-0.138-0.139-0.275-0.276-0.414-0.413c-0.473-0.476-1.281-0.476-1.754,0
			c-0.476,0.475-0.476,1.279,0,1.754c0.137,0.139,0.274,0.276,0.413,0.414c0.474,0.475,1.281,0.475,1.755,0
			C315.887,133.134,315.887,132.329,315.412,131.854z"/>
	</g>
</g>
<g id="MOUTH_BACK">
	<path fill="#D0A61D" d="M259.756,163.817c-0.984-3.56-5.569-4.741-8.737-5.244c-12.758-2.023-25.308,3.052-38.115,1.127
		c-2.656-0.398-15.865-4.009-15.914,1.188c-0.455,1.359-0.088,3.112,1.095,3.897c1.671,1.11,4.15,1.05,6.047,1.505
		c3.596,0.863,7.129,1.948,10.68,2.969c6.525,1.87,13.164,3.078,19.915,3.785c6.029,0.632,12.882,1.476,18.658-0.824
		C256.489,170.983,260.808,167.62,259.756,163.817z"/>
</g>
<g id="mouth">
	<path fill="#594C2D" d="M246.415,162.328c-1.387-1.007-3.657-1.059-5.311-1.24c-2.713-0.299-5.448-0.232-8.168-0.035
		c-5.096,0.369-10.072,1.134-15.201,0.92c-1.645-0.07-3.286-0.176-4.93-0.289c-0.011-0.002-0.022-0.004-0.033-0.005
		c-3.869-0.637-7.7-1.409-11.612-1.526c-0.511-0.244-1.071-0.263-1.667-0.079c-0.152,0.028-0.317,0.062-0.513,0.105
		c-0.391,0.086-0.733,0.526-0.708,0.93c0.181,2.882,5.148,3.149,7.296,3.908c4.527,1.602,8.611,3.44,13.396,4.253
		c4.974,0.847,10.084,1.159,15.119,0.897c3.62-0.187,9.227-0.159,12.112-2.739C247.766,166.021,248.296,163.693,246.415,162.328z"/>
</g>
<g id="left-eye-BACK">
	<path fill="#D0B467" d="M175.094,123.453c-0.423-1.711-0.873-3.57-2.4-4.646c-1.308-0.924-2.84-0.867-4.324-0.555
		c-0.333-0.027-0.667-0.04-1.002-0.025c-0.852,0.034-1.679,0.211-2.455,0.504c-0.088,0.033-0.178,0.069-0.267,0.107
		c-1.563,0.657-2.889,1.807-3.735,3.3c-0.428,0.699-0.712,1.438-0.822,2.2c-0.623,3.188,1.45,5.34,4.193,6.347
		c1.534,0.682,3.276,0.909,4.92,0.594c0.488-0.056,0.961-0.146,1.411-0.271C174.034,130.042,175.957,126.945,175.094,123.453z"/>
</g>
<g id="left-eye-WHITE">
	<path fill="#FFFFFF" d="M173.289,123.12c-0.319-1.296-0.662-2.705-1.818-3.521c-0.992-0.699-2.151-0.657-3.277-0.42
		c-0.253-0.021-0.507-0.03-0.759-0.021c-0.646,0.027-1.272,0.162-1.861,0.383c-0.066,0.026-0.135,0.052-0.202,0.082
		c-1.185,0.498-2.189,1.369-2.83,2.501c-0.324,0.528-0.54,1.09-0.623,1.667c-0.473,2.416,1.099,4.046,3.177,4.81
		c1.163,0.517,2.484,0.689,3.729,0.449c0.37-0.041,0.729-0.109,1.069-0.206C172.484,128.114,173.942,125.767,173.289,123.12z"/>
</g>
<g id="left-eye-PUPIL">
	<path fill="#594C2D" d="M170.126,123.712c0.002-0.739-0.585-1.443-1.13-1.667c-0.124-0.052-0.553-0.481-0.816-0.481l0,0
		c-0.854,0-1.975,0.541-2.447,1.427c-0.495,0.93-0.211,2.319,0.717,2.857c1.428,0.824,3.885-0.305,3.652-2.03
		C170.108,123.758,170.126,123.771,170.126,123.712z"/>
</g>
<g id="right-eye-BACK">
	<path fill="#D0B467" d="M311.459,128.152c-0.094-1.197-0.43-2.279-0.895-3.311c-1.001-4.661-3.562-9.031-7.327-12.032
		c-3.789-3.02-8.271-3.702-12.681-2.752c-1.183,0.058-2.304,0.204-3.258,0.423c-3.404,0.783-5.828,3.38-7.195,6.486
		c-0.684,1.111-1.225,2.316-1.633,3.595c-0.166,0.395-0.323,0.791-0.466,1.187c-1.806,5.051,0.094,11.196,2.522,15.724
		c2.416,4.507,6.697,7.949,11.832,8.585c2.949,0.368,6.294-0.123,9.232-1.384c4.153-1.203,7.814-3.742,8.897-8.021
		C311.178,133.933,311.675,130.964,311.459,128.152z"/>
</g>
<g id="right-eye-WHITE">
	<path fill="#FFFFFF" d="M306.985,126.163c-0.067-0.884-0.316-1.681-0.66-2.442c-0.738-3.438-2.628-6.662-5.404-8.875
		c-2.796-2.229-6.102-2.733-9.355-2.031c-0.873,0.042-1.699,0.15-2.402,0.312c-2.514,0.577-4.302,2.494-5.309,4.785
		c-0.505,0.819-0.903,1.709-1.205,2.651c-0.122,0.291-0.238,0.584-0.344,0.876c-1.33,3.727,0.069,8.26,1.86,11.599
		c1.782,3.326,4.94,5.865,8.729,6.335c2.177,0.27,4.644-0.091,6.811-1.021c3.063-0.889,5.766-2.761,6.564-5.917
		C306.778,130.428,307.145,128.238,306.985,126.163z"/>
</g>
<g id="right-eye-PUPIL">
	<path fill="#594C2D" d="M298.553,124.851c-0.084-0.239-0.195-0.479-0.335-0.715c-0.937-1.565-2.928-2.527-4.701-1.904
		c-0.978,0.345-1.646,1.06-2.004,1.909c-0.952,1.548-0.569,3.19,0.442,4.298c1.705,2.655,6.37,2.632,7.023-1.099
		C299.137,126.448,298.953,125.594,298.553,124.851z"/>
</g>
</svg>
